/* XPM */
static char *cfd455cefd704de2a7e2ec4fc67c3ce6DENBCdbqKJEtVBDl[] = {
/* columns rows colors chars-per-pixel */
"64 64 231 2 ",
"   c #3B1B19",
".  c #3A221D",
"X  c #3B2623",
"o  c #48221C",
"O  c #4C2622",
"+  c #442A26",
"@  c #4C2B24",
"#  c #4C2E2B",
"$  c #432826",
"%  c #522A25",
"&  c #532D2B",
"*  c #5B2F2C",
"=  c #592926",
"-  c #4C322D",
";  c #55322D",
":  c #5B322D",
">  c #563027",
",  c #532F32",
"<  c #4D3432",
"1  c #4D3C3B",
"2  c #4C3834",
"3  c #543434",
"4  c #5C3533",
"5  c #543A35",
"6  c #5C3A35",
"7  c #5B363A",
"8  c #543C3B",
"9  c #5B3C3B",
"0  c #553639",
"q  c #4D2F31",
"w  c #662B28",
"e  c #783529",
"r  c #633533",
"t  c #643B35",
"y  c #633D3C",
"u  c #6A3C3B",
"i  c #693835",
"p  c #783D3B",
"a  c #65322B",
"s  c #54423D",
"d  c #5C423D",
"f  c #5A4339",
"g  c #63423D",
"h  c #6B433D",
"j  c #6D443B",
"k  c #73433D",
"l  c #7C433E",
"z  c #79483C",
"x  c #5C3E41",
"c  c #573E41",
"v  c #643F41",
"b  c #6B3E41",
"n  c #733F42",
"m  c #554342",
"M  c #5C4442",
"N  c #5C4845",
"B  c #5C464A",
"V  c #5E4B4A",
"C  c #644443",
"Z  c #6C4443",
"A  c #644A45",
"S  c #6C4A45",
"D  c #654649",
"F  c #6C4549",
"G  c #644B4B",
"H  c #6C4C4A",
"J  c #734443",
"K  c #7A4542",
"L  c #734A45",
"P  c #7B4B45",
"I  c #714649",
"U  c #734C4C",
"Y  c #7B4C4C",
"T  c #794748",
"R  c #64514E",
"E  c #6C524D",
"W  c #6B574B",
"Q  c #74524D",
"!  c #7B524D",
"~  c #755A4F",
"^  c #6C4E51",
"/  c #644C51",
"(  c #754E51",
")  c #7B4E52",
"_  c #655452",
"`  c #6C5352",
"'  c #6B5A55",
"]  c #6D5358",
"[  c #6D5A59",
"{  c #675853",
"}  c #745353",
"|  c #7B5453",
" . c #745A55",
".. c #7B5A55",
"X. c #745559",
"o. c #7C5659",
"O. c #745B5B",
"+. c #7C5C5B",
"@. c #75615C",
"#. c #7D625D",
"$. c #6F605D",
"%. c #7B5E61",
"&. c #765D60",
"*. c #6F5F62",
"=. c #7D6462",
"-. c #7D6A64",
";. c #7D6568",
":. c #766765",
">. c #893D30",
",. c #89473C",
"<. c #96493C",
"1. c #834A46",
"2. c #834C4B",
"3. c #894E4B",
"4. c #894843",
"5. c #974D44",
"6. c #83524D",
"7. c #8A524D",
"8. c #875449",
"9. c #95524B",
"0. c #834F51",
"q. c #835453",
"w. c #8C5552",
"e. c #825A55",
"r. c #8B5A55",
"t. c #835659",
"y. c #845C5B",
"u. c #8B5C5B",
"i. c #8A5659",
"p. c #935552",
"a. c #945B54",
"s. c #9B5B55",
"d. c #935C5B",
"f. c #9A5959",
"g. c #A75548",
"h. c #B45448",
"j. c #A55C54",
"k. c #AD4F43",
"l. c #83625D",
"z. c #8B625D",
"x. c #95615D",
"c. c #9D645C",
"v. c #A6645A",
"b. c #B06758",
"n. c #845E61",
"m. c #8A5E61",
"M. c #9B5F61",
"N. c #A45F62",
"B. c #836462",
"V. c #8B6464",
"C. c #846A65",
"Z. c #8C6A64",
"A. c #846769",
"S. c #8B6669",
"D. c #856C6A",
"F. c #8B6C6A",
"G. c #926362",
"H. c #9A6463",
"J. c #946C65",
"K. c #936C6B",
"L. c #9B6D6C",
"P. c #976967",
"I. c #84736D",
"U. c #8C736D",
"Y. c #897167",
"T. c #93736D",
"R. c #9B736D",
"E. c #9A756A",
"W. c #886D70",
"Q. c #966D71",
"!. c #8C7472",
"~. c #8D7A75",
"^. c #897976",
"/. c #947572",
"(. c #9C7573",
"). c #947A74",
"_. c #9B7A74",
"`. c #947C7A",
"'. c #9D7D7B",
"]. c #9A7578",
"[. c #A56865",
"{. c #A3766D",
"}. c #A37C75",
"|. c #A37C7C",
" X c #A77A76",
".X c #94827C",
"XX c #9C817C",
"oX c #978175",
"OX c #A4827C",
"+X c #AA837D",
"@X c #B3867E",
"#X c #9F7F80",
"$X c #9C8482",
"%X c #9E8A85",
"&X c #988784",
"*X c #9F918A",
"=X c #A38583",
"-X c #AA8583",
";X c #A58A85",
":X c #AB8B84",
">X c #A48B8A",
",X c #AB8C8A",
"<X c #A7878A",
"1X c #B38D8B",
"2X c #B68884",
"3X c #A5928C",
"4X c #AC918C",
"5X c #B2958E",
"6X c #BB988C",
"7X c #AA8F90",
"8X c #AD9592",
"9X c #AD9994",
"0X c #AA9896",
"qX c #B39692",
"wX c #B39A95",
"eX c #B39C9A",
"rX c #BB9E9B",
"tX c #BB9895",
"yX c #B18F90",
"uX c #BAA29E",
"iX c #B5A19B",
"pX c #BDA4A1",
"aX c #BDAAA6",
"sX c #C29B92",
"dX c #C2A29B",
"fX c #C3A4A2",
"gX c #C7AAA8",
"hX c #CAB2AC",
"jX c #D3BBB5",
"kX c #CFB5B1",
"lX c #E3CAC3",
/* pixels */
"t r * r y y  .$XH +.| | q.e.l.S W #.U q.T T i.Y A H Q Z C /.U.} B.+.y.y.L J u.Y j k ! ~ L g Y.F.%.=.O.[ { R R N m 8 d H # . s M ",
"O O o O   . d C.+ - H Z C & H 5 2 2 4 4 r J J g d 5 3 C d +.=.5 C d A 6 6 > % % > t o # 6 + #.5 - < < 8 N 8 s s < - 9 5 d d d E ",
"T.qX4X.X3X&X*X0X`.$X!.C.U.XXwX9X>X$X$X,X4X=X=XF.D.`.I.-.-.%X>X` D. .@.C.D.C.D.)./.C.C.D.C. .qX;XF.C.U.U.XX;X$XXXXX,X4XXX5XOX/.C.",
"+. .=.8X.X&X3X`.`.$X!.8X`.wXwX>X`.=XgX;XT.(.'.|._.:XeX^.D./.W.A.A.).!.~.-.U.).).U.3X;XC./.F.F./.A  .l.Q U S y 6 6 A C.5 d 9 & # ",
"Z g + =.N G M X.C C C F.C H F F U g z.L p 1.K p p i z.g Q | I t.o.S.Q C 7 6 - C d /...& Z I b y 3 C Z I ) Z Y I H Q V.4 g y 4 4 ",
"U C 9 !.G ` ` O.H } } ].} } Z I v 6 l.u.w.p.a.1.p.p J.S e.V.V.t.| /.'.U } ..H E  ./.V.U U Y ) I E } +.F I U Z U U } C # g ; # O ",
"+ . + I.1 V s s 2 < 8 O.X 5 8 < < - -.C # g : > * % ..5 - + # + < 9  .- 5 < 8 G d }  .+ 5 y y 9 d { U.H C U 6 C A A E f d A G ` ",
"'.qXiXgX9XeX3X3X9X.X~.%X!.$X>X>XeX$XaXiX=XOX+X:X_.:XlXeX$X).O.+.F./.F.} XXXX).).F.,XkXXXOX'.;X).'.4X4X;X:X}.K.z.z.T.T.).F.).>XC.",
"| y.e.U | U C #.F.X.A.} +.} F.'.%.F.S.U I z.J.R.R.J.(.L.K.fX<XU | U y.V.i.i.| | J ! | e.| | |.V.! J j P k l w.1.1.7.1.P J r ! j ",
"r 4 i J T J y H O.H +.} F I Q C C H Z Y T T K u k J r n J I V.| u.Y q.q.0.Y P T a P G.e.q.Z K.z.r.3.6.P 6.6.a.7.9.s.s.p.w.P P ! ",
"L Z T T T Y y X.U.X.A C ( U ` +.} l.q.d.Y w.x.1.6.q.f.1.2.q.z.Z 6.! ! q.i.d.G.q.Y G.u.J.y.L Z.z.q.6.r.r.j z 6.7.7.a.p.w.6.T t h ",
"$ # % 4 : o   d d . $ # 3 $ M E d H * * t 4 = : : t p J J Z V.@ O % % % : : * O 4 y g y ; # Z.d % 4 4 > : o % : u k k i r & | Q ",
"-.I.$XF.C.$XC.3X*XI.:.{ { { ^.I.O.+.F.=. .' =.!.U.U.l.y.+.V.fX_.=X;X5X:X,X=X'.=X).`.C.Y.!.)..XD.Y.F././.F.)././.F.OXT._.Z.A.$X!.",
"D.I.D.wX4X`.XX.X.XI.-.0XeX%X&X*X>X>XeX~.D.I.I.I.!.`.8XB.H } | ..+.T.;XD.#. .H `  .U.).G B.B.}  .A  .;X+.F.B. . .Q A.} X.D ^ D D ",
"4 3 $ B.| C ( C C G M ;.8 8 7 7 v 4 #. .C H  .y.V.q.V.S U Y Y Y g V.(.e.+.+.| } X.U y.| ) V.t.| U Q S.Q I U I Z ; g l.Q | U ( o.",
"y g 3 l.+.H U ( +.+.C !.` } H | I ! C...| S.S.K.L.P.(.e.U u e.e.| V.K.y.K.B.V.V.B.F.V.| t.t.t.Y H | | e.| L ! J Z h Z Q y H v Z ",
"O O . =.] M C d d d 2 $X8 8 5 5 5 d  .A d ` C A H ; H 3 + # 6 d < 3 #.d g g r 6 5 N ).M C v C H C F.T.9 Q U L Q h Z.Z...} d M O.",
"l.T.OXfXXX+.Y.U.Y.).>XjX8X>X=X).U.#.>XgX8XXXU.B.B.#.<XrX!.U.F.).$X7X>X).OXOX}.J.Y.!.>X>X).;X4X).;X4X;X).'.Z.V.R.}.}.-X_.XXC.$X%X",
"J.V.G.L.L.(./.'.T...V.y.L.K.yX<XB.T.V.+.+.y.F.B.} H y.y./.T.,XK.].V.(.OX(.R.L.P.y.| F v ( D O.M C C C A S Z Z ! Y L U Z A d } A ",
"y Z J J J ) Z Z U g T r r 4 | F.C y y I U y Z C v & y H H H (.y.) u.i.e.z.z.x.x.P.u.t.t.n.y.D.d Z U B.y.| ! J U | q.U S S C H g ",
"H I J Y q.q.Y 4 I T 6.3.2.Y o.S.U n.y.+.+.} H } +.H H } | y.Z.V.L.d.J.z.E.J.e.e.q.u.i.q.u.G._.S ! | | U F F Z | U J I I | Z U g ",
"v H U Z ! Z y I I J P u u 4 H ^ 7 7 7 9 9 C M M 9 5 C 7 5 9 V.g u j t 6 h h e.q.Q U ! | q.q.+Xy.U e.I U H Z y C y 4 y y y y S ; ",
"B.=.#.#.C.C.B.,XgX6XE.oXT.oX8XeX<X,X$XwXpXkXpXeXwXeXeXwX,X=XgXdX4X).4XwXOXOX1XtX5XfXfXfXtX-X-X<X|.+XtX=X,X;X>X=X<X|.|.V.V.(.OXT.",
"} H d %X@. .V.y.q.y.z.:XU.W #.=.=.+.F.=XX.X.+.O.#.+.qXwX/.V.V.K.U.).).l.u.L.q.u.+.+.;X..I y U I y 4 |.} B.H H } X.} V.4 U y Z Z ",
"i Z C #.H Z u p 1.3.T V...6 Z | ( } U ].| U Z H ( I V.V.Y u.G.G.e.q.R.J f.f.j.[.u.y.E.h k i.r.q.T u.(.U U H H X.n.U Q.4 4 i g g ",
"K | y O.^ U T w.f.w.Y V.| U y.V.U X.D '.o.+.U +.o.e.G.i.m.P.P.L.V.V. Xi w.[.N.p.u.e.J.L J 2.G.Y q.Y | | ....H } ..| K.& 4 4 6 g ",
"g g 5 [ m < 5 t t j & U H - A M + 2 M `.d 8 d d C 4 ..S.H | I H H } '.3 y Z T Y h ; l.e.| J Q H Z ~ l.g d d 9 d g C +.9 C 9 - - ",
"l. .+.3X%X~.F.T._.V.K.,X<X`..X`..X`.eXkX;X$X4X;X).U.;XfX:X,X1X4X).).eXU.U.K.R.}.}.E.6X+X X|.<X=XT.'.E...OX_.Z.T.+X}.:XOX'.T./.U.",
"e.| F H Z C C -XV.G.i.i.V.+.H ).G H #.A.(.|.(.(.|.R.V.+.y.| ,X'.+...C.l.Z.G.c.v.s.j.9.,.4.3.J.z.u.J T q.6.r.r.w.w.P 2.6.Y U V./.",
"F Z F F ( } 3 y.b T 2.2.T Z H F.C H | U | i.T q.q.q.m.| V.| /.V.| U Q e.q.P ,.<.<.5.<.5.j.s.J.J.H.x.r.7.f.v.s.p.9.7.1.P 6.I | y.",
"H y Z Z g A 8 =.H F Y T Y } 8 &.#.V.V.y.Y q.q.u.Y Y y...Z. .A.F.u.0.U e.z.r.9.j.b.b.b.j.j.a.! ..u.2.w.7.a.a.s.s.p.p.1.Y e.} } } ",
"y 6 9 g d 8 5 U.8 7 y g y 9 G I.9 H 6 y I u i u Z 4 y A } g ;X+.Y | | Z h L l 8.a.,.e 4.8.z Q l.| j j 2.J 1.1.l 3.k k L L 9 C 9 ",
"|.K.T.wXwX,XwXuX`.;X;XrXuXeX3X0X).`.).'.|.|./.=X8X0XXX/.F.].rX$X/.|.=XU.'.'.K.T.l.Z.}.e.| U F.F.A.F.'.S.V.G.L.{.e.z._.).!.F.).'.",
"Z C 9 B.O. .H E O.+.M D.O.M x C `  .C.!.( ( ( X.=.=.A.A.n.} } +.X.B./.X.A.X.X.#.` O./.H } } H } o.C /.+.H U I | S S B.G E E y Z ",
"I F 4 O.^ X.U +.o.o.H `.+.D v ( | | X.n.U y.i.V.| } F.F.S.V.n.S.n.S./.+.| U | e.| | |.| Y m.m.| ) Z B.E 8 < D } | ( y.| U y y C ",
"I F C X.` } } o.o.H G !.^ 9 7 H ( H H @.U y.t.i.y.V.A.} o.o.o.B.+.X.F.B.B.Z.S.y.| ..K.I U | U y y U ..- + + 8 + $ U m.I I Z } E ",
"7 8 M M 8 M H A M H R ~.;. .O.H +.` @.I.d A H H H d  . .M A  .@.` @.-.M W W  .g A A C. .E M N D S S '.Q f f f W W )._.C C g 9 M ",
"'.).=XrXwXwXeXuXuXuXpXkXgXgXkXkXqXwXhXjXwX5X1X1XtXtXkXgXdXrXuXhXpXfXwX=X;XF.T.qX,X).wXqXXXU.XX4XtX}.+XsXsX@XsX6X6X6XsX5X=X/.XXA.",
"g 4 4 J L L S l...Z ! u.u.r.| _.Y q.q.| e.r.6.r.x.r.H.d.7.q.Z.Z.Z d.u.q.q.r.i.L.G.6.! | z.e.V.Z.q.j 3.9.g.j.g.<.,.,.z 6.Y H `.N ",
"g Z i i K 6.L ~ Q ! P 1.3.d.q.z.q.r.x.6.P 7.w.7.p.c.p.f.f.1.y.e.2.0.i.d.M.d.f.d.p.d.i.G.z.e.(.! 6.6.s.j.h.h.k.h.g.g.,.8.r.} !.=.",
"6 Z u i 2.T h Q ~ h Y 1.6.6.6...U e.U L u.6.r.d.G.x.H.[.[.G.| d U q.G.H.d.H.u.r.6.d.u.u.z.| z.! 6.7.9.g.h.h.k.h.g.5.9.,.q.} @.:.",
"A g Z Z 4 Z 9 ..l.Q ! ! L e.Q T.H C C C U U J k J i i i Z I } ` C H H U e.z.e.u.q.q.J | ! L OX| J 1.4.4.,.>.<.>.e e w w = 3 D.m ",
"C.@. .D.>X$X>XuXpXaXwXwXrX8XqXwX7X>XeXeX`./.'.-X-X|._.'.} +.^.%X@.:.~.)./.T.Y.F.Z.z.(.z.J.K.K.R.P.{.2X@X{.}.}.{.+X+XR.V.V.A.`.-.",
"8 M 1 [ [ 8 ` G G G m :..XG [ G G / *.^.[ G } U +.} `.%.` X.] [ $.' .X-.' `  .l.l...T.Q U L g L L ! R.Z...#.' @.O.=.XX} } H C C ",
"D ^ ^ O.] 5 X.X.O.^ c !.W.G X.X.] G B ;.O.+.S.m.+.+.;.&.O.%.X.;.;.-.>X=.+.+.E B.y.y.K.Y Y I I J Y e.l.l.+.O.O.O.O.%.W.9 D 9 4 C ",
"7 , $ 8 %.$ 9 9 D ^ M I.O.M ^ D / B _ ;.O.+.| +.=.] D.O.G 0 X.] &.X.$X+.H X.A X.} H V.y 4 I y F I F ( X.O.O.X.X.} O.A.< C C 9 y ",
"F.A.O.>X>X-.!.A.=.O.{ .X~.m N m m 1 s V 8 9 6 d s 2 ^.-.` D.O.c D ^ <X/.+.A.+. .C.+.=X'.B.Z.B.} | Z +.C.+.+.X.} ^  .$X_ 1 G M - ",
"Z.K.F...+.B.U.$XwX!.-.!.$XI.-.&XaXaXiXgXtX5XsXwXXX%X8XrXgXgXgX8XX.S.1X].S.K.K.T./.l.Z.T.(.'.).,X/.S.'.qX`.F.'./.;X).$X`.!.!.~.;X",
"u J J J Y I v F D 3 0 3 8 1 1 `.@.C ~ ! 2.w.a.P ! ! J Y Y I C./.H | q.K p.7.8.r.a.a 3.H.q.!  .F.} B.e.U ( U Z U | I F b ( ( X.`.",
"T P 6.q.) | o.y.A.7 F D D ] G O.+...u.! 6.7.3.l P r.T P q.| C.B.l.P.d.p.s.v.[.c.[.7.p.[.H.u. .).} +.| | Y I U | I J ) ) U } O.H ",
"t t g S H C 7 8 9 # d 9 9 M 8 H n.U I U e.6.Y T ! ! e.! | L U y.U G.r.6.P k z 6.6.a 6.u.i.y.H C.C E H ~ Q U | | Y L | U 9 A A X ",
"J.e...B.#.B.C.l.Z.l...} } =.B.F.K.) } } A Q e.Y L ~ S S L r J.:Xi.Y J L Q ! ! Y q.e.| l.B.+.B.`.E #.+.S ~ ~ ! q.L h H g M G E V ",
"L | Q B.).Z.V.L.+X Xl.-XrX/.+.Q.Q.n.!.9X3XuXdX-X).XX_.Z.6.P  X2XL.|.tXOX5X5X:X:XOX,XXX=XC.F.!.#XT._.5XE.OX}.{. XJ.Z.OXU..X.X%XeX",
"g g 4 Q } 6 u p J J t e.Q C H C F x V :.V M C A } E T...P 7.3.3.2.n (.C A H H U Q C C.A # 5 3 7 6 & y.! 6.6.1.1.6.P T.~ A d 9 C ",
"y Z & | V.u P 3.3.2.k | S H X.X.X.o.O.=.{ ` X.} H Z y.q.w.f.f.f.d.0.2XQ ....U t.t.y.F.8 M 9 Z U Z * u.d.3.p.9.3.l l z.~ Z S Z b ",
"3 9 3 B.+.& Z j u r 4 Z 3 9 8 0 x 9 N G M 2 D ^ H C e.Y K w.K 3.w.Y -XS Q B.y.| t.| O.3 $ 3 , 3 & & q.d.p.p.4.e l P ! S y I y b ",
"$X`.eXgX$XD.-.-.U.Y./.XX).D.^.~.[ ;.D.{ N ` V V G V  . .C U S Q y.Z.rX .#.+.U.B.y.| ;X$XC. .` ` R } (.T 6.3.l p z h ~ ; g 9 6 y ",
"R _ G G _ [ { I.iXR !.,XwX$X`.&XeX8X9X>X=X>X!.;.^._ 4XfXU.B.3X-.D.Z.T.C.F.F...V.V.F.qXqX4X;XhXiX.X>XgX1X2X2X@X@X(.J.:X_.B.F.F.=.",
"m 8 M D B G 1 O.U.# 6 Z Z v x A.E 5 d A C I U 0 9 A X.F Z 6 -.M C 9 y Z y Z i y i Z i r y ; B.Y.8 8 C u J J J h h U Z | F C /.C.",
"s 8 G B B X.B G !.C | | F U D ^ E A H } | ) ) F C X.U U n.U =.` C } | | G.u.i.u.u.P.i.u.u.Z U Z.A A y F b u J Z Z Z Z F Z 9 } d ",
"2 s N V N N q ] W.q D x C D 2 G 5 A A C Q F Z I I F I q.) Z } C 5 A F Z Z t 4 u J J T q.Y Z S l.9 g 6 I u r y 4 H F Z g y g  .< ",
").3X~.&X%X0X&XeX>XW.A.A.=.` { 3X!.F.C./.'.+X XP.K.J.y.y U V.=X,XA.X.+.} +.l.Z.l.e.U J Y Y Z y.'.} U C A g g F Z y y 6 9 6 9 }  .",
"> 6 5  .R m 8 B G / G `.[ R =.D.D C C.'...V.G.z.Z.l.Z.} +.B.C.A.%.D.,X+.F...l.Y._.T.J.}.|.Z.K.|.P.L.+X'.F.B.V.V.V.K.B.C.C. .XXwX",
"t u y E { 1 V B m m 2 _ N N D 9 C Z O.F.} e.! u...L #...H H H G ^ C !.C M - - ; f 6 S e.Z Q Z y i r | Z C Z U I F 4 /.#. .W A A "
};
