/* XPM */
static char *d609f08698c24151b86f9ccacebb43b983qxfwxruU9zen1G[] = {
/* columns rows colors chars-per-pixel */
"64 64 131 2 ",
"   c None",
".  c #2F3F2E",
"X  c #526429",
"o  c #5C7826",
"O  c #5D7536",
"+  c #547832",
"@  c #5B7B34",
"#  c #607831",
"$  c #69743C",
"%  c #607B43",
"&  c #628537",
"*  c #628837",
"=  c #618338",
"-  c #658B3B",
";  c #698D3C",
":  c #639235",
">  c #66903C",
",  c #6C953E",
"<  c #6D9A3E",
"1  c #72983F",
"2  c #6BA326",
"3  c #70AB24",
"4  c #628341",
"5  c #6F8842",
"6  c #6B8B4C",
"7  c #6C9542",
"8  c #6E9C41",
"9  c #6C934A",
"0  c #709543",
"q  c #739D43",
"w  c #7A9F44",
"e  c #70964B",
"r  c #729A4E",
"t  c #729552",
"y  c #7C9F59",
"u  c #6DA641",
"i  c #75A444",
"p  c #78A445",
"a  c #74AC43",
"s  c #7AAB46",
"d  c #7AA64A",
"f  c #75AC49",
"g  c #7BAD4A",
"h  c #79B147",
"j  c #7DB24A",
"k  c #7DB84A",
"l  c #7CA355",
"z  c #7FA955",
"x  c #82912D",
"c  c #849C53",
"v  c #889F5C",
"b  c #82A44F",
"n  c #81B54D",
"m  c #83B94D",
"M  c #86A453",
"N  c #8DA751",
"B  c #80A35C",
"V  c #88A15A",
"C  c #8BAD59",
"Z  c #93A45D",
"A  c #81B450",
"S  c #86BA50",
"D  c #8BBD54",
"F  c #8DB95B",
"G  c #94B455",
"H  c #90BF57",
"J  c #93BA5E",
"K  c #809065",
"L  c #819864",
"P  c #899F6F",
"I  c #87A060",
"U  c #8DA662",
"Y  c #9BBE62",
"T  c #8BA172",
"R  c #93A675",
"E  c #A4BC72",
"W  c #8DC055",
"Q  c #8FC558",
"!  c #91C259",
"~  c #9DC55F",
"^  c #9BC362",
"/  c #9DCB63",
"(  c #A2CD65",
")  c #A4C468",
"_  c #A7CB6B",
"`  c #ACCC6E",
"'  c #B1CE6C",
"]  c #A5D165",
"[  c #A5D068",
"{  c #ADD36D",
"}  c #A8CB70",
"|  c #B3CB77",
" . c #B1CF79",
".. c #B3D574",
"X. c #B8D577",
"o. c #B4DC72",
"O. c #BADC76",
"+. c #BAD37F",
"@. c #BDDF79",
"#. c #BFE076",
"$. c #BEE17A",
"%. c #C1E27B",
"&. c #C5EC7D",
"*. c #C7F07E",
"=. c #949A89",
"-. c #97A980",
";. c #9DAB8B",
":. c #9EA697",
">. c #9CA39C",
",. c #A0A89B",
"<. c #98A1A6",
"1. c #AEC08A",
"2. c #B4C786",
"3. c #C5DA91",
"4. c #DBE98B",
"5. c #CBF481",
"6. c #D1F787",
"7. c #D5F78B",
"8. c #D5FA89",
"9. c #DBFF8A",
"0. c #E1FF8F",
"q. c #E1FE8F",
"w. c #E3FF8F",
"e. c #E0FF92",
"r. c #E5FF93",
"t. c #E6FF94",
"y. c #EFFF9B",
"u. c #F2FF9D",
"i. c #C1C6B1",
"p. c #FBFFA1",
"a. c #E4EBF3",
/* pixels */
"                                                                                                                                ",
"                                                                                                                                ",
"                                                                                                                                ",
"                                                                                                                                ",
"                                                                                                                                ",
"                                                                                                                                ",
"                                                                                                                                ",
"                                                                                                                                ",
"                                                                                                                                ",
"                                                                                                                                ",
"                                                                                                                                ",
"                                                                                                                                ",
"                                                                                                                                ",
"                                                                                                                                ",
"                                                                                                                                ",
"                                                                                                                                ",
"                                                                                                                                ",
"                                                                                                                                ",
"                                                        e.'                                                                     ",
"                                                        e.]                                                                     ",
"                                                      7.O.Q 9                                                                   ",
"                                                      &.$./ j                                                                   ",
"                                                    9.5.%.{ m                                                                   ",
"                                                    e.5.$.O.W h                                                                 ",
"                                                    t.5.%.#./ f                                                                 ",
"                                                  p.t.5.#.$.G x N                                                               ",
"                                                4.u.6.&.@.#.B i.I #                                                             ",
"                                                u.8.&.%.#.{ y   <..                                                             ",
"                                              3.9.&.#.@.O./ 2 >.a.                                                              ",
"                                              +.%...%.@.{ D f o :.,.                                                            ",
"                                              | ..U ....^ S 0 i 3 3 e                                                           ",
"                                              E @.X.c ^ D m 0 p A A A                                                           ",
"                                              Z $.o.b $ b 9 X u n s n q                                                         ",
"                                              V o.D 9 } ~ g O 5 8 n j n                                                         ",
"                                              %.C 9 ) ( D a V { : 7 j n r                                                       ",
"                                            ;.X.` ` ] ! k u M ] S < - n q                                                       ",
"                                            2.` $.( D k j i l / m k < ; i                                                       ",
"                                            | _ _ ! j g k < M Q h h k 7 g                                                       ",
"                                            E Y F n h h j 0 w k j h g - n T                                                     ",
"                                              Y g k k h k ; p k g j p , m 9                                                     ",
"                                              -., i 1 i p @ < g n m i 7 n n L                                                   ",
"                                                  4 p q 8 8 - @ = q * i j g n 6                                                 ",
"                                                    % 7 * - > ; = - X p j g j g q R                                             ",
"                                                      S S k j j j k i + n g j w d s                                             ",
"                                                      ;.p n n j g g n = - n j < 0                                               ",
"                                                          t s n m n m S 1 1 p 4                                                 ",
"                                                              ;.T y y y B K =.                                                  ",
"                                                                                                                                ",
"                                                                                                                                ",
"                                                                                                                                ",
"                                                                                                                                ",
"                                                                                                                                ",
"                                                                                                                                ",
"                                                                                                                                ",
"                                                                                                                                ",
"                                                                                                                                ",
"                                                                                                                                ",
"                                                                                                                                ",
"                                                                                                                                ",
"                                                                                                                                ",
"                                                                                                                                ",
"                                                                                                                                ",
"                                                                                                                                ",
"                                                                                                                                "
};
