/* XPM */
static char *frame_011684402954[] = {
/* columns rows colors chars-per-pixel */
"64 64 256 2 ",
"   c black",
".  c #000055",
"X  c #1B0000",
"o  c #2B0000",
"O  c #550055",
"+  c red",
"@  c #00031E",
"#  c #080401",
"$  c #0D041B",
"%  c #000D00",
"&  c #0D0D12",
"*  c #0E0E07",
"=  c #000F23",
"-  c #1B0F06",
";  c #30120C",
":  c #15130D",
">  c #141412",
",  c #1E161B",
"<  c #291613",
"1  c #01191B",
"2  c #131919",
"3  c #1F1A26",
"4  c #1A1B00",
"5  c gray11",
"6  c #541D50",
"7  c #1D1E14",
"8  c #382018",
"9  c #00212E",
"0  c #182129",
"q  c #12232E",
"w  c #22231A",
"e  c #22233F",
"r  c #1C2423",
"t  c gray14",
"y  c #33244A",
"u  c #352457",
"i  c #28261F",
"p  c #292725",
"a  c #262829",
"s  c #1D2B34",
"d  c gray17",
"f  c #2B2B55",
"g  c #4B2B28",
"h  c #2D2C32",
"j  c #2F2D3A",
"k  c #012F43",
"l  c #0B2F34",
"z  c #2D3029",
"x  c #31302D",
"c  c #35323D",
"v  c #333300",
"b  c #333366",
"n  c #413359",
"m  c #343433",
"M  c #383444",
"N  c #29373C",
"B  c #42374E",
"V  c #1D384F",
"C  c #373939",
"Z  c #383936",
"A  c #3D3B43",
"S  c #4B3B67",
"D  c #813B2F",
"F  c #323C44",
"G  c #363C49",
"H  c #3C3C3B",
"J  c #453E3B",
"K  c #8B3F33",
"L  c #2F4047",
"P  c #474055",
"I  c #184150",
"U  c #3F413F",
"Y  c #3F4142",
"T  c #64414A",
"R  c #734144",
"E  c #4C426B",
"W  c #574270",
"Q  c #434343",
"!  c #324448",
"~  c #38444E",
"^  c #494551",
"/  c #4A455D",
"(  c #4C4546",
")  c #51455E",
"_  c #574643",
"`  c #454749",
"'  c #844748",
"]  c #9E482D",
"[  c #504949",
"{  c #57496D",
"}  c #704955",
"|  c #884A4E",
" . c #434B5B",
".. c #4C4C4C",
"X. c #514C5E",
"o. c #394D6C",
"O. c #574D65",
"+. c #3B4E55",
"@. c #4D4E52",
"#. c #5A4E71",
"$. c #974E51",
"%. c #69505C",
"&. c #785154",
"*. c #3B525C",
"=. c #555366",
"-. c #5D5379",
";. c gray33",
":. c #005555",
">. c #545559",
",. c #5555AA",
"<. c #5E556C",
"1. c #3F5765",
"2. c #48585F",
"3. c #8A585E",
"4. c #A55955",
"5. c #D75945",
"6. c #545A70",
"7. c #5A5B5C",
"8. c #5F5B6A",
"9. c #625B5D",
"0. c #6F5B89",
"q. c #435C66",
"w. c #685C83",
"e. c #665D7D",
"r. c #545E6F",
"t. c #5D5E60",
"y. c #675E75",
"u. c #5F5F7C",
"i. c #6C607B",
"p. c #44616E",
"a. c #5E6263",
"s. c #72628E",
"d. c #6F638F",
"f. c #4E6473",
"g. c #63646A",
"h. c #646464",
"j. c #646483",
"k. c #6D6484",
"l. c #CE644C",
"z. c #DC6450",
"x. c #EE654D",
"c. c #E06859",
"v. c #726987",
"b. c #406A7A",
"n. c #6A6B6C",
"m. c #756B8B",
"M. c #566C79",
"N. c #796E8F",
"B. c #4E6F7D",
"V. c #7B708E",
"C. c #6F7172",
"Z. c #7C7292",
"A. c #727375",
"S. c #757395",
"D. c #997371",
"F. c #547482",
"G. c #807495",
"H. c #5D768D",
"J. c #7A7699",
"K. c #81769B",
"L. c #F67660",
"P. c #757779",
"I. c #7D7895",
"U. c #76797C",
"Y. c #787A9F",
"T. c #E37A64",
"R. c #547B84",
"E. c #847B9D",
"W. c #FF7C67",
"Q. c #7D7D80",
"!. c #8A7EA3",
"~. c #5B7F8D",
"^. c #008080",
"/. c #8080FF",
"(. c #8280A9",
"). c #548197",
"_. c #7D8184",
"`. c #43829C",
"'. c #5F8293",
"]. c #818283",
"[. c #9B8383",
"{. c #9284AA",
"}. c #848688",
"|. c #FF8870",
" X c #87898B",
".X c #648B9B",
"XX c #8B8B8C",
"oX c #998CB4",
"OX c #518DA8",
"+X c #5B8DA6",
"@X c #8D8D91",
"#X c #558E8E",
"$X c #6590A0",
"%X c #8E9091",
"&X c #CB9071",
"*X c #5D92AC",
"=X c #6293AC",
"-X c #929495",
";X c #949699",
":X c #6598B2",
">X c #6C98A9",
",X c #97999A",
"<X c #9A9C9D",
"1X c #8B9DA7",
"2X c #9D9FA1",
"3X c #6CA0BB",
"4X c #74A3B4",
"5X c #9FA3A8",
"6X c #FEA388",
"7X c #A2A5A7",
"8X c #76A6BA",
"9X c #A7A9AB",
"0X c #55AAAA",
"qX c #78AABD",
"wX c #AAACAE",
"eX c #7BADC2",
"rX c #B3ADAB",
"tX c #ACAFB2",
"yX c #AFB1B3",
"uX c #FEB193",
"iX c #7DB2C6",
"pX c #B2B4B6",
"aX c #7FB5CA",
"sX c #B3B6B8",
"dX c #83B8CE",
"fX c #B7B9BB",
"gX c #BABCBD",
"hX c #BBBEC1",
"jX c #BEC1C3",
"kX c #88C2D6",
"lX c #C2C4C4",
"zX c #C4C6C9",
"xX c #C5C9CC",
"cX c #98CBD0",
"vX c #CACCCD",
"bX c #CBCED1",
"nX c #CED0D2",
"mX c #9AD3E9",
"MX c #D3D5D7",
"NX c #D6D9DC",
"BX c #DADCDD",
"VX c #DBDEE1",
"CX c #DCE0E3",
"ZX c #E1E3E5",
"AX c #E3E5E9",
"SX c #E6E9EB",
"DX c #ADEAFF",
"FX c #EAEDEE",
"GX c #EBEEF1",
"HX c #EDF1F3",
"JX c #F2F5F6",
"KX c #F3F6F9",
"LX c #F6F9FB",
"PX c cyan",
"IX c white",
"UX c None",
/* pixels */
"UXUXUXUXUXUXUXUXUXUXUXUXUXUXUXUXUXUXUXUXUXUXUXUXUXUXUXUXUXUXUXUXUXUXUXUXUXUXUXUXUXUXUXUXUXUXUXUXUXUXUXUXUXUXUXUXUXUXUXUXUXUXUXUX",
"UXUXUXUXUXUXUXUXUXUXUXUXUXUXUXUXUXUXUXUXUXUXUXUXUXUXUXUXUXUXUXUXUXUXUXUXUXUXUXUXUXUXUXUXUXUXUXUXUXUXUXUXUXUXUXUXUXUXUXUXUXUXUXUX",
"UXUXUXUXUXUXUXUXUXUXUXUXUXUXUXUXUXUXUXUXUXUXUXUXUXUXUXUXUXUXUXUXUXUXUXUXUXUXUXUXUXUXUXUXUXUXUXUXUXUXUXUXUXUXUXUXUXUXUXUXUXUXUXUX",
"UXUXUXUXUXUXUXUXUXUXUXUXUXUXUXUXUXUXUXUXUXUXUXUXUXUXUXUXUXUXUXUXUXUXUXUXUXUXUXUXUXUXUXUXUXUXUXUXUXUXUXUXUXUXUXUXUXUXUXUXUXUXUXUX",
"UXUXUXUXUXUXUXUXUXUXUXUXUXUXUXUXUXUXUXUXUXUXUXUXUXUXUXUXUXUXUXUXUXUXUXUXUXUXUXUXUXUXUXUXUXUXUXUXUXUXUXUXUXUXUXUXUXUXUXUXUXUXUXUX",
"UXUXUXUXUXUXUXUXUXUXUXUXUXUXUXUXUXUXUXUXUXUXUXUXUXUXUXUXUXUXUXUXUXUXUXUXUXUXUXUXUXUXUXUXUXUXUXUXUXUXUXUXUXUXUXUXUXUXUXUXUXUXUXUX",
"UXUXUXUXUXUXUXUXUXUXUXUXUXUXUXUXUXUXUXUXUXUXUXUXUXUXUXUXUXUXUXUXUXUXUXUXUXUXUXUXUXUXUXUXUXUXUXUXUXUXUXUXUXUXUXUXUXUXUXUXUXUXUXUX",
"UXUXUXUXUXUXUXUXUXUXUXUXUXUXUXUXUXUXUXUXUXUXUXUXUXUXUXUXUXUXUXUXUXUXUXUXUXUXUXUXUXUXUXUXUXUXUXUXUXUXUXUXUXz p t t d UXUXUXUXUXUX",
"UXUXUXUXUXUXUXUXUXUXUXUXUXUXUXUXUXUXUXUXUXUXUXUXUXUXUXUXUXUXUXUXUXUXUXUXUXUXUXUXUXUXUXUXUXUXUXUXUXUXUXp m Q Q C Z t d a UXUXUXUX",
"UXUXUXUXUXUXUXUXUXUXUXUXUXUXUXUXUXUXUXUXUXUXUXUXUXUXUXUXUXUXUXUXUXUXUXUXUXUXUXUXUXUXUXUXUXUXUXUXUXd m ..r   1 Q Z H H d t UXUXUX",
"UXUXUXUXUXUXUXUXUXUXUXUXUXUXUXUXt m UXUXUXUXUXUXUXUXUXUXUXUXUXUXUXUXUXUXUXUXUXUXUXUXUXUXUXUXUXUXH m     Q.jX X  H Z H m 5 UXUXUX",
"UXUXUXUXUXUXUXUXUXUXUXUXUXUXUXd t     UXUXUXUXUXUXUXUXUXUXUXUXUXUXUXUXUXUXUXUXUXUXUXUXUXUXUXUXUX: d fXBXGXIXLXwXa U Q Z d UXUXUX",
"UXUXUXUXUXUXUXUXUXUXUXUXUXUXUXUXp ].H   UXUXUXUXUXUXUXUXUXUXUXUXUXUXUXUXUXUXUXUXUXUXUXUXUXUXd   n.NXIXIXIXHXIXJXn.    Q d t UXUX",
"UXUXUXUXUXUXUXUXUXUXUXUXUXUXUXUX  xXnX  UXUXUXUXUXUXUXUXUXUXUXUXUXUXUXUXUXUXUXUXUXUXUXUXUXm Z 7XJXIXLXLXIXIXzXwXm A.yX  H 5 UXUX",
"UXUXUXUXUXUXUXUXUXUXUXUXUXUXUXUX  h.KXzX# UXUXUXUXUXUXUXUXUXUXUXUXUXUXUXUXUXUXUXUXUXUXUXd   XXIXIXIXIXIXIXzX8.@.xXHXIXlX  m UXUX",
"UXUXUXUXUXUXUXUXUXUXUXUXUXUXUXUXUXm xXIXyX  UXUXUXUXUXUXUXUXUXUXUXUXUXUXUXUXUXUXUXUXUXY # lXIXIXLXLXIXZXa.g.-XnXIXIXLXHXg.  UXUX",
"UXUXUXUXUXUXUXUXUXUXUXUXUXUXUXUX>.  Q.xXCX..  UXUXUXUXUXm m UXUXUXUXUXUXUXUXUXUXUXUX..  <XIXIXIXIXIXvX>.7.hXIXIXLXLXIXIX7X  UXUX",
"UXUXUXUXUXUXUXUXUXUXUXUXUXUXUXUXH Q     <XgX;.  UXUXUXUXm UXUXUXUXUXUXUXUXUXUXUXUXUX  wXKXIXIXJXgX%X  ].AXIXLXKXIXIXIXSX;.> m UX",
"UXUXUXUXUXUXUXUXUXUXUXUXUXUXUXUXUX  sX<X  A.lX  UXUXUXUXm m UXUXUXUXUXUXUXUXUXUXUX  Q.IXIXZXn.  * d > nXIXJXIXIXIXZXjX..  Q > UX",
"UXUXUXUXUXUXUXUXUXUXUXUXUXUXUXUXUXUX;XCXm   ` @.% UXUXUXm UXUXUXUXUXUXUXUXUXUXUXp C.VXIX9X  -XtX7.  Q m CXIXGXgXXX@XwXlXP.w t UX",
"UXUXUXUXUXUXUXUXUXUXUXUXUXUXUXUXUXUX  zX..Q   Q H : UXUXm UXUXUXUXUXUXUXUXUXUXUX  CXIXpX-XVXIXIXFXsX:   ].yX].hXMXIXIXIXfX  UXUX",
"UXUXUXUXUXUXUXUXUXUXUXUXUXUXUXUXUXUXd A.  lXMXa ..d UXUXZ UXUXUXUXUXUXUXUXUXUX  lXLXh.jXIXIXIXLXIXHX@.p ( nXJXIXIXLXKXIXpX  UXUX",
"UXUXUXUXUXUXUXUXUXUXUXUXUXUXUXUXUXUX  ZXP.gXIX7X  7.  UXm UXUXUXUXUXUXUXUXUX# XXLX>.gXIXIXIXIXIXIXIXsX  MXIXIXLXLXLXLXIXtX  UXUX",
"UXUXUXUXUXUXUXUXUXUXUXUXUXUXUXUXUXUX  pXhXgXKXVXh.U t UXH UXUXUXUXUXUXUXUXF ; FXwXwXIXIXIXIXIXIXIXLX9.@XIXIXIXLXKXIXIXSXQ 5 UXUX",
"UXUXUXUXUXUXUXUXUXUXUXUXUXUXUXUXUXUXUX..CXMXAXJX,X  _.A x Z UXUXUXUXUXUXUX  zXzX5XIXIXIXIXIXIXIXIXlXt SXIXLXLXIXIXIXIXyX  m UXUX",
"UXUXUXUXUXUXUXUXUXUXUXUXUXUXUXUXUXUXUXt.LXwXAXGXSXd 7X7.p UXUXUXUXUXUXUX  h.nXXXSXIXIXIXIXIXIXIXyX_.SXIXIXIXIXlXfXsXU.: Q 5 UXUX",
"UXUXUXUXUXUXUXUXUXUXUXUXUXUXUXUXUXUXUX  fXGXyXJXZXQ @ a.4 w 7 UXUXUXUXUXm zX..ZXIXIXIXIXIXIXJXC.wXIXIXJX9X2XU.XXvXvXvX..d 5 UXUX",
"UXUXUXUXUXUXUXUXUXUXUXUXUXUXUXUXUXUXUX  t zXlXyXLXsXc %.B E.k.c w UXUX  -XtXgXIXIXIXIXIXIXvX-XfXJXlX].XX>.nXFXIXIXIXIX].  UXUXUX",
"UXUXUXUXUXUXUXUXUXUXUXUXUXUXUXUXUXUXUXUX2XhXwXyXpXk.E.{.Y.S.oX!.O.  UX: 2XXXIXIXIXIXIXZXbXU.pXpX XpXLXIXIXIXIXLXLXLXLX;.5 UXUXUX",
"UXUXUXUXUXUXUXUXUXUXUXUXUXUXUXUXUXUXUXUX-XLXBXtXk K.{.Y.4.D o.!.{.X.  ;Xn.BXIXIXIXFX2Xm h.hXzXvXIXIXIXIXIXIXIXIXIXIXLX;.r UXUXUX",
"UXUXUXUXUXUXUXUXUXUXUXUXUXUXUXUXUXUXUXUX%XGXCX4.] y.(.3.|.uX&Xe E.G.A 7.VXIXIXIXpX  m vXHXJXIXIXIXIXIXIXIXIXIXIXLXIXIX7.5 UXUXUX",
"UXUXUXUXUXUXUXUXUXUXUXUXUXUXUXUXUXUXUXUX  xXhX5.T.i.Y.$.|.6X6Xl.) !.y 2XIXIXSX` n.yXIXIXIXIXIXIXIXIXIXIXIXIXIXIXIXIXVX( a UXUXUX",
"UXUXUXUXUXUXUXUXUXUXUXUXUXUXUXUXUXUXUXUX  xXD.x.R J.S.| W.|.|.|.&.E.W pXIXvX@.gXJXIXIXIXIXIXIXIXIXIXIXIXIXIXIXIXLXIX-XX H UXUXUX",
"UXUXUXUXUXUXUXUXUXUXUXUXUXUXUXUXUXUXUXUX  jX[.5.' S.Y.T z.L.W.L.} I.S pXrX2XIXIXIXIXIXIXIXIXIXIXIXIXIXIXIXIXIXIXIXnXH H d UXUXUX",
"UXUXUXUXUXUXUXUXUXUXUXUXUXUXUXUXUXUXUXUX< ! &.l.R k.6 9 K c.c.z.T Z.v.$   lXvXlXlXlXlXlXlXlXlXlXlXlXlXhXlXlXgXwXpX  H U h UXUXUX",
"UXUXUXUXUXUXUXUXUXUXUXUXUXUXUXUXUXUXUXUXx r g K %.H.cX2.@ D D K y.m.B m wXlXjXlXlXlXlXlXlXjXlXlXjXlXlXlXlXjXlXlXlXXXw H t UXUXUX",
"UXUXUXUXUXUXUXUXUXUXUXUXUXUXUXUXUXUXUXUXUX..bXl ~ eXmX8X) k.u.j.Z.k.Q.nXSXIXIXIXIXIXIXIXIXIXIXIXIXIXIXIXIXIXIXIXIXvX  Q   UXUXUX",
"UXUXUXUXUXUXUXUXUXUXUXUXUXUXUXUXUXUXUXUXUXt JXnX  @ *.~ y.V.N.y.<.M 2XwXbXFXIXIXIXIXIXIXIXIXIXIXIXIXIXIXIXLXIXLXIXvX  ( 2 UXUXUX",
"UXUXUXUXUXUXUXUXUXUXUXUXUXUXUXUXUXUXUXUXUXm FXKXNX7X@ A ^ / =.-.-.{ 3 -X@X@X<XMXIXIXIXIXIXIXIXIXIXIXIXIXIXIXIXIXIXvX  ( 2 UXUXUX",
"UXUXUXUXUXUXUXUXUXUXUXUXUXUXUXUXUXUXUXUXUX  <XJXHXQ.{ e.d.w.W s.!.!.P 9XbXvXNXvX].yXFXSXLXIXIXIXIXIXIXIXIXIXIXIXIXvX  Q # UXUXUX",
"UXUXUXUXUXUXUXUXUXUXUXUXUXUXUXUXUXUXUXUXUX  A.LXxXF.f.Z.K.r..X .!.!.w.A.nXVXKXIXIXFX<X,XpXnXIXIXIXIXIXIXIXIXIXIXIXXX7 d UXUXUXUX",
"UXUXUXUXUXUXUXUXUXUXUXUXUXUXUXUXUXUXUXUXUXUXQ.IXA..XM.N.O.q.DX'.G.E.Z.y 9XVXGXIXIXIXIXIXSXyX7X<XBXIXIXIXIXIXIXIXVX  Q 5 UXUXUXUX",
"UXUXUXUXUXUXUXUXUXUXUXUXUXUXUXUXUXUXUXUXUXUX}.gX>XiXF.i.G 8XmX'.s.E.K.e.` ;XFXIXIXIXIXIXIXIXSXZXwX].;XZXIXIXIXjXY Q d UXUXUXUXUX",
"UXUXUXUXUXUXUXUXUXUXUXUXUXUXUXUXUXUXUXUXUXUXc   b.eXM.N.O..XkXB.0.G.Z.) 7XP.h BXIXIXIXIXIXIXIXIXIXIXvX XU.gX-X  x H t UXUXUXUXUX",
"UXUXUXUXUXUXUXUXUXUXUXUXUXUXUXUXUXUXUXUXUXUX  <X_.9 i.E.O.I R.6.m.Z.Z.<.C zXjX@.<XHXIXIXIXIXIXIXIXIXIXIXBXh.  ` U H 5 UXUXUXUXUX",
"UXUXUXUXUXUXUXUXUXUXUXUXUXUXUXUXUXUXUXUXUXUX  jX%Xu v.Z.m.k.i.m.Z.N.G.n <Xt.MXIXwX7.wXLXIXIXLXIXIXIXIXJXIXwX  ..H 5 UXUXUXUXUXUX",
"UXUXUXUXUXUXUXUXUXUXUXUXUXUXUXUXUXUXUXUXUXUXUXQ <X=.w.m.N.N.Z.Z.N.N.k.8.BXMX  BXIXJX7X..gXJXIXIXIXIXIXIXJX].1 _ 8 UXUXUXUXUXUXUX",
"UXUXUXUXUXUXUXUXUXUXUXUXUXUXUXUXUXUXUXUXUXUXUX> <X@.#.e.k.m.k.v.m.k.E P.VXIXZX  MXIXIXAX<Xn.wX<XSXIXLXlXh.  H 9 UXUXUXUXUXUXUXUX",
"UXUXUXUXUXUXUXUXUXUXUXUXUXUXUXUXUXUXUXUXUXUXUXa     j B { #.S E #./ c   vXIXIXSX XzXIXIXIXVXZXgXt.]._.m ..@.  UXUXUXUXUXUXUXUXUX",
"UXUXUXUXUXUXUXUXUXUXUXUXUXUXUXUXUXUXUXUXUXUXUXUXUXUXw M.1.I A.n.V ).b.- d FXIXIXLX2X-XBXIXIXIXIXQ.9XIXIXIXQ.  UXUXUXUXUXUXUXUXUX",
"UXUXUXUXUXUXUXUXUXUXUXUXUXUXUXUXUXUXUXUXUXUXUXUXUXUX+.*X:X`.}.1XOX:X*XG UXm HXIXIXIXxXn.%XbXIX;X<XC.NXIX;X  Q UXUXUXUXUXUXUXUXUX",
"UXUXUXUXUXUXUXUXUXUXUXUXUXUXUXUXUXUXUXUXUXUXUXUXUX  ).*X+X)., ).*X*X+Xq UX  >.JXIXIXIXJXMX7Xn.gXIXCX2X7XZ d UXUXUXUXUXUXUXUXUXUX",
"UXUXUXUXUXUXUXUXUXUXUXUXUXUXUXUXUXUXUXUXUXUXUXUXUX~ +X*X+X+XJ '.*X=X+Xs UXUX  h.BXIXIXLXIXIX7XMXIXIXNXH m 5 UXUXUXUXUXUXUXUXUXUX",
"UXUXUXUXUXUXUXUXUXUXUXUXUXUXUXUXUXUXUXUXUXUXUXUXUXF.3X=X:X).1.=X:X:X8XN UXUXUXt   9XLXIXIXIXFX2XIXsXa.i m UXUXUXUXUXUXUXUXUXUXUX",
"UXUXUXUXUXUXUXUXUXUXUXUXUXUXUXUXUXUXUXUXUXUXUXUXUXB.aXqXaX*.B.aXqXiX4XN UXUXUXUXUX  n.XXFXIXFXn.%X  d x UXUXUXUXUXUXUXUXUXUXUXUX",
"UXUXUXUXUXUXUXUXUXUXUXUXUXUXUXUXUXUXUXUXUXUXUXUX  .XaXiXqXL F.dXeXdXp.UXUXUXUXUXUXUX    t U H d   H t UXUXUXUXUXUXUXUXUXUXUXUXUX",
"UXUXUXUXUXUXUXUXUXUXUXUXUXUXUXUXUXUXUXUXUXUXUXUX*.dXeXaX'.UX~.aXeXdXp.UXUXUXUXUXUXUXUXUX>     5 d & UXUXUXUXUXUXUXUXUXUXUXUXUXUX",
"UXUXUXUXUXUXUXUXUXUXUXUXUXUXUXUXUXUXUXUXUXUXUXUX+.aXiXeXp.  R.aXiX>XL UXUXUXUXUXUXUXUXUXUXUXUXUXUXUXUXUXUXUXUXUXUXUXUXUXUXUXUXUX",
"UXUXUXUXUXUXUXUXUXUXUXUXUXUXUXUXUXUXUXUXUXUXUXUX*.dXaX$X  UX~.dXiX~.UXUXUXUXUXUXUXUXUXUXUXUXUXUXUXUXUXUXUXUXUXUXUXUXUXUXUXUXUXUX",
"UXUXUXUXUXUXUXUXUXUXUXUXUXUXUXUXUXUXUXUXUXUXUXUXa 4XqX0 UXUX1.iX4XF UXUXUXUXUXUXUXUXUXUXUXUXUXUXUXUXUXUXUXUXUXUXUXUXUXUXUXUXUXUX",
"UXUXUXUXUXUXUXUXUXUXUXUXUXUXUXUXUXUXUXUXUXUXUXUX  ! *.UXUXUX  q.q.= UXUXUXUXUXUXUXUXUXUXUXUXUXUXUXUXUXUXUXUXUXUXUXUXUXUXUXUXUXUX",
"UXUXUXUXUXUXUXUXUXUXUXUXUXUXUXUXUXUXUXUXUXUXUXUXUXUXUXUXUXUXUXUXUXUXUXUXUXUXUXUXUXUXUXUXUXUXUXUXUXUXUXUXUXUXUXUXUXUXUXUXUXUXUXUX",
"UXUXUXUXUXUXUXUXUXUXUXUXUXUXUXUXUXUXUXUXUXUXUXUXUXUXUXUXUXUXUXUXUXUXUXUXUXUXUXUXUXUXUXUXUXUXUXUXUXUXUXUXUXUXUXUXUXUXUXUXUXUXUXUX",
"UXUXUXUXUXUXUXUXUXUXUXUXUXUXUXUXUXUXUXUXUXUXUXUXUXUXUXUXUXUXUXUXUXUXUXUXUXUXUXUXUXUXUXUXUXUXUXUXUXUXUXUXUXUXUXUXUXUXUXUXUXUXUXUX"
};
