/* XPM */
static char *_bdc2cfd30d242b79453c2fea65bdd13QCkY9cvu9aKHN5HO[] = {
/* columns rows colors chars-per-pixel */
"64 64 223 2 ",
"   c #2C0C01",
".  c #330D01",
"X  c #2E1103",
"o  c #341204",
"O  c #3B1303",
"+  c #361409",
"@  c #3B1609",
"#  c #3C190D",
"$  c #441500",
"%  c #491700",
"&  c #451A04",
"*  c #4B1C04",
"=  c #451C0B",
"-  c #4B1E09",
";  c #521E02",
":  c #5B1B00",
">  c #462303",
",  c #4A2603",
"<  c #4D2904",
"1  c #46230A",
"2  c #4C210A",
"3  c #4A280B",
"4  c #542205",
"5  c #5B2402",
"6  c #522E05",
"7  c #5C2904",
"8  c #54230A",
"9  c #5B2609",
"0  c #522E09",
"q  c #5D2A0A",
"w  c #563204",
"e  c #5C3504",
"r  c #5E3904",
"t  c #55310A",
"y  c #5B350A",
"u  c #5E390A",
"i  c #4D2211",
"p  c #532613",
"a  c #592B13",
"s  c #5E3710",
"d  c #5F3912",
"f  c #622602",
"g  c #652B03",
"h  c #6B2C03",
"j  c #60270A",
"k  c #642C0B",
"l  c #6B2D0A",
"z  c #712F01",
"x  c #643302",
"c  c #6C3203",
"v  c #633C05",
"b  c #6D3B02",
"n  c #67320A",
"m  c #6C330B",
"M  c #643D0A",
"N  c #6A3A0B",
"B  c #723404",
"V  c #7B3602",
"C  c #733B03",
"Z  c #7C3C05",
"A  c #73350B",
"S  c #78350A",
"D  c #743A0C",
"F  c #7B3B0B",
"G  c #632F11",
"H  c #6A2F11",
"J  c #6B3511",
"K  c #623C10",
"L  c #6A3910",
"P  c #703110",
"I  c #753C13",
"U  c #7A3C12",
"Y  c #723E19",
"T  c #674005",
"R  c #6A4306",
"E  c #6F4807",
"W  c #66410C",
"Q  c #6B4409",
"!  c #6A440B",
"~  c #6C450A",
"^  c #6F470A",
"/  c #6D460A",
"(  c #69420E",
")  c #6A450E",
"_  c #6C450C",
"`  c #6E470C",
"'  c #6F470C",
"]  c #6E460D",
"[  c #6A430C",
"{  c #6F480E",
"}  c #6E480C",
"|  c #764106",
" . c #7B4403",
".. c #74440B",
"X. c #7C420B",
"o. c #70480B",
"O. c #724A0D",
"+. c #714A0E",
"@. c #744C0F",
"#. c #754E0D",
"$. c #734B0C",
"%. c #7A4D0E",
"&. c #734B03",
"*. c #775103",
"=. c #7B5404",
"-. c #77500E",
";. c #7B540D",
":. c #7F590A",
">. c #7E5805",
",. c #664011",
"<. c #6D4611",
"1. c #6C4512",
"2. c #6E4912",
"3. c #6E4913",
"4. c #7D4212",
"5. c #714A11",
"6. c #724C12",
"7. c #754D11",
"8. c #744C12",
"9. c #7B4E12",
"0. c #7C401B",
"q. c #775113",
"w. c #785111",
"e. c #7C5413",
"r. c #7E5914",
"t. c #7E5518",
"y. c #7B5619",
"u. c #7D4E22",
"i. c #813C0C",
"p. c #823D13",
"a. c #844204",
"s. c #894504",
"d. c #864A03",
"f. c #8B4B06",
"g. c #85440B",
"h. c #8B460A",
"j. c #854A0D",
"k. c #8D4B0C",
"l. c #924D04",
"z. c #924D0C",
"x. c #84550B",
"c. c #8D520C",
"v. c #825C0D",
"b. c #8A5A0F",
"n. c #955107",
"m. c #95520C",
"M. c #99550D",
"N. c #93590F",
"B. c #9B590F",
"V. c #834312",
"C. c #894515",
"Z. c #844B15",
"A. c #8C4B12",
"S. c #8B461D",
"D. c #8F4A1B",
"F. c #934E14",
"G. c #825515",
"H. c #835C14",
"J. c #8D5C13",
"K. c #86541D",
"L. c #8B5218",
"P. c #855D19",
"I. c #8B5B1B",
"U. c #955313",
"Y. c #985414",
"T. c #945B13",
"R. c #9A5C14",
"E. c #94541C",
"W. c #9C5D19",
"Q. c #975919",
"!. c #A05F1B",
"~. c #86610D",
"^. c #8A630D",
"/. c #876114",
"(. c #8B6415",
"). c #8E6915",
"_. c #87611A",
"`. c #8B641B",
"'. c #8E691A",
"]. c #916615",
"[. c #916B15",
"{. c #94641D",
"}. c #9C641A",
"|. c #926C1C",
" X c #9A6C1C",
".X c #9C6115",
"XX c #96711D",
"oX c #9A731D",
"OX c #957017",
"+X c #A7641D",
"@X c #834B23",
"#X c #944C24",
"$X c #805127",
"%X c #845B24",
"&X c #8B5D22",
"*X c #8B5B2A",
"=X c #925D28",
"-X c #8D6522",
";X c #8E6B21",
":X c #8C642A",
">X c #8F682F",
",X c #916224",
"<X c #936D22",
"1X c #996D24",
"2X c #936429",
"3X c #9B6C2C",
"4X c #97692B",
"5X c #967122",
"6X c #9A7423",
"7X c #9D7925",
"8X c #96712A",
"9X c #9C742A",
"0X c #9D7929",
"qX c #9F6D30",
"wX c #936A36",
"eX c #9F7A31",
"rX c #A27425",
"tX c #A17A23",
"yX c #A3732E",
"uX c #A07C2A",
"iX c #AA7B3A",
"pX c #A77E3C",
"aX c #A0802D",
/* pixels */
"& 1 3 3 > > > , , < < < 0 y u M 1.[ W W [ [ ] ] ! _ _ _ ~ W T v v v M 1.3.! W T v v v v v v v v W ! { 6.5.1.) ( M M M M u y y w ",
"1 3 3 3 , > > , < < 0 t t y u M ( ( 1.3.3.3.3.{ 6.5.o.o.5.o.R v M M ( 1.5._ ! ~ v v v T ! ~ _ _ T T _ 6.8.5.1.1.3.1.,.M M M M M ",
"> > > > > > , > < 0 y d s y u K W ( 1.1.1.3.3.6.8.5.{ { o.o.R v v v ( 1.5._ ~ ! T T T T { 6.6.o.W W _ 5.8.5.1.1.1.1.1.,.K M u u ",
"> > > > > , , , 0 0 y K K y y K M W W M M v [ 6.5._ ! ~ { { R v e v W 5.6.o.~ R T T R ~ { 6.7.6.~ ! ~ o.3.[ M M u M M ,.K u y w ",
"> > , , , < 0 t 0 6 y y u y y u M M M r e r v _ { { ~ ~ ~ o.~ ~ v v _ o.7.@.o.o.R o.o.o.o.o.@.o.~ W T ~ _ W v v r v M M M u e w ",
"> > , < < < t t y y y y y r e e v M W M v r v T ~ ~ _ o.o.o.o.o.W _ o.o.~ o.@.@.@.e.e.@.o.7.7.o.~ W T ~ _ W v v r v M M y r r y ",
"> > , < 0 t t t 6 y u r r M M v W W [ ! W T W ~ { { ~ o.o.o.o.^ R o.@.o.o.@.e.e.t.e.;.@.-.q.e.o.o.~ ~ o.5.o.! W v M M v r e r u ",
", , , 0 t y y w < r M u r M ( M 1.{ [ ! W ! { 6.6.o.o.o.7.7.o.E T o.e.e.e.e.t.e.r.e.#.$.e.r.e.R e.@.o.7.e.7.{ _ M ( ( ( M u u u ",
"t t y u y e y M w M W ( ( ( ( W q.{ W W _ o.@.7.q.t.t.e.e.t.e.o.o.;.t.P._.`.P.H.P.H.e.;.e.G.P.P.;.;.e.G.e.~ R o._ 3.3.1.1.1.( M ",
"6 w w y e w e u r W 1._ [ _ 5.5.q.@.o.@.7.q.e.t.t.G.P.H.H.H.r.e.;.e.H._.`.`.`.P.H.H.H.r.H.P.P.G.H.e.t.P.G.e.@.7.6.7.8.5.5.5.[ v ",
"6 w y u u u u M M _ 3._ _ o.8.7.t.e.e.e.e.q.t.G.r.P._.P.P.P.P.P.H.P.P._.`.'.`.(.H.H.P.`.`.`.P.H.P.H.H.P.P.r.e.q.o.7.7.7.8.8.5._ ",
"w u M W W M W [ _ 5.5.{ ~ o.7.e.P.r.r.r.t.e.t.H.H.H.H.H.P.P.P._.P._._._.(.|.<X|./._.`.<X<X<X`.H.P.P.P._._.H.r.H.-.7.7.@.@.o.o.o.",
"e u M W ( W ( _ 3.5.5.o.o.o.9.t.P.r.r.H.P._.`._.P.H.G.H.P.H.P.H.(.(.(.(.|.|.<X<X|.|.|.`.`.`._.H././.(.`._.P.P.P.P.r.e.7.o.~ R ~ ",
"u u W 1.1.W ( _ W ! ~ o.o.o.e.G.P.r.r.H.`.`.`._.`.P.H.H.P././.P.'.|.|.|.|.5X6X5X|.|.(._._.`.`.P.H.(.|.|.(._._._.P.G.t.e.@.^ R ^ ",
"M W 1.3.3.( [ _ [ ~ o.@.@.@.q.H.`.P.P.P._./.P./.<X/.H./././.(.(.|.|.<X|.5X7X9X5X|.).(.(.`.'.-X(./.(.|.|.).`._.P.H.H.H.r.e.@.$.@.",
"M W 1.3.1.W W ! 8.7.q.t.t.e.t.P._._._._._._.`.'.<X(./.(.(.(.(.|.(.|.|.<X6X7X9X5X).).(.|.<X5X1X<X(.).|.|.<X|.`.P.H.H.H.P.t.#.o.o.",
"v M 1.5.1.M M ( 5.8.7.e.q.e.t.`._.P.P.`.<X'.(.(.|.(.`./././././.|.|.|.|.|.9X7X6X|.(.(.).).5X9X'.`.'.<X<X|.(.(.`._.P.H.H.t.e.@.o.",
"v M ( 1.( M M W { 7.q.t.G.t.r._.`._._.`.|.|.`.`.|.(././.(.(.(./.|.|.|.|.5X9X9X|.(.v./.|.'.|.<X'.|.<X1X<X|.|.|.|.`.P.H.H.G.e.@.@.",
"v v ( _ ( M v W _ 7.7.q.G.r.r.P.`._._.`.<X<X|.|.|.(././.(.|.|.(.).|.|.|.5X9X5X|.).v.(.|.|.).).|.|.<X<X<X|.|.|.|.`._.P.P.H.e.9.@.",
"v v ( ) ( W W W _ o.o.o.-.e.e.P.H.P._.<X<X<X<X<X<X|.(.(.|.|.|.|.(.).|.|.|.5X5X|.|.(.(.).(./.(.).`.(.(.'.).|.|.|.|.`.`._.P.t.e.9.",
"r v M M ( ( W M v T T R $.-.;.H.H.P.'.<X<X1X<X<X<X<X|.|.|.|.|.|.).|.|.).).|.|.XX).)./.:.v.v.v./././.(.(.|.|.<X<X<X1X<X`.P.H.e.%.",
"e r v M M ( v v e v ~ o.@.;.;.H.P.`.<X<X<X1X<X<X|.<X|.).(.(.|.|.|.|.|.|.).).|.|.(.(.:.*.:./././.(.(.(.|.|.5X<X<X<X<X<X`.P.H.e.%.",
"r v M M ( ( v r x ~ 7.;.e.;.e.H.P.(.|.|.(.|.<X<X|.|.(.(.(.).|.|.XX|.|.|.|.|.|.|.|.(.:.:.).|.).).(.(.(.).|.|.|.(.`.'.-X_.G.t.e.@.",
"v M 1.1.1.1.W r _ q.t.e.e.;.;.H.v./._.P.P._.|.<X|.(.(.(.).|.XXXX|.).).|.6X6X6XXX5X(.v.(.0X9X|.|.(././.(.(.(./.v.P._.`.P.H.e.e.@.",
"e v ( 1.1.( W W 8.t.G.H.r.H.P._.H.H.H./.(./.H.(.(././.(.|.|.[.).|.).).|.oX6XoX|.).).).|.7X7X6X|.).5X|./.|./.:./.H.H.H.H.H.t.e.@.",
"e r M ( ( ( ( _ 7.t.P.P.H.H.P._.H.H.H./.(././.).|.(.(.(.|.|.).(.).^.(.).|.|.XX|.|.[.|.XX7X7X6XXX|.5X|.(.|.(.H.(.H.H.H.H.H.e.e.e.",
"M M M M ( ( ( _ 5.q.G.P.P._._./._.(././.(.H.v.v.(.(.(.).|.|.|.).^.).[.|.|.|.|.|.|.).[.|.6X7X6XoX5X5X|.|.).(.(.(.v.:.;.e.e.;.;.;.",
"( M M M M M v T ~ 7.G.P._._._./.v.P././.(.(./././.(.|.|.XXXX|.).^.[.oX7X7XoX|.[.(.(.(.).XX6X6X6X9X|.|.|.(.(.(././.v.;.P.P.H.G.H.",
"M M M ( M v v v ~ @.t.H.P._./.H.v././.(.(./.v.v.(.|.|.|.|.[.[.).v.^.OXoX6XoX|.|.^.^.(.).|.6X6X6X5X|.|.|.).).(././.:.-.H._.P.G.G.",
"r v ( 1.1.W ( ~ o.7.t.H.H.H.H.v.(.|.|.(.(.H.=.=.(.|.|.(.(.).|.|.v.^.^.[.XXoX6XoX[.).).|.XX6X6X6X|.|.|.|.|.|.(.(.v.*.&.-.H.e.;.#.",
"e v ( 5.1.[ 1.6.o.7.e.e.H.H.H.v.v././.H.(.(.(.(.(.|.).(.(.|.oXXX^.^.^.].XXtXuX6X|.|.[.|. XoXoXoX|.|.).(.|.)./.(./.H.H.P.P.P.e.%.",
"e v ( 1.( M W { ~ o.e.e.H.P././.:.v.H.v./.|.|.|.|.|.|.|.XX6XXX).).^.^.].oXtX6XXX[.[.[.[.|.|.|.|.XX6X(.~.).(.v././.(.(._.P.P.G.;.",
"w r [ [ W T T ~ R o.;.H.H.H.H.H.:./.|.).(./.).|.|.5X7X7X6X|.(.v.).^.^.].XXtXoXXX[.[.].].].[.XXoXXX|.).(.(.|.)./././.H.P._.`.P.H.",
"e M [ [ T v T T o.o.%.G.H.H.H.P./.).|.|.).|.|.XX5X5X9XuX7X|.).).).).).|.6XtXoXXX[.].].].].[.XXoX|.|.|.|.|.5X|.).).|.'.(.`.`.`._.",
"u M _ [ T v T R o.o.#.e.H.P.P.P.|.|.5X|.|.XX5X5X6X|.oXuX7X|.).|.[.[.[.oXtXtXoX[.[.[.[.].[.[.|.XX).|.XX5X9X9X5X|.|.<X<X(._._.`.`.",
"v M ( ( W T T ~ o.o.#.;.r.H.P./.5X5X5XXX5X5X5X5X6X5X5X7X6XXX|.|.).[.|.oX7X7XoXOX[.[.[.[.[.[.|.|.[.|.5X7X7X9X5X|.|.<X<X(._._.P.P.",
"M M M M M v T ~ ^ @.e.r.r.r.P.`.<X<X<X5X5X6X9X5X5X7XtX6X6X6XXX].(.(.[.XXoXoXoXOX].].].[.XXXXXX|.|.|.5X9X9X5X<X<X1X<X<X`._._.I.H.",
"M M M M M v v T @.-.e.H.r.r._.'.`.'.'.'.|.5X5X5X|.9X6X XXXoX|.^.v.^.).|.XXXXXXOX).).).[.XXoXoXoX|.|.|.XX5X|.|.|.|.|.<X`._._.P.e.",
"r v v M M M T T $.@.e.r.r.r./.`._.`.`./././.).|.|.|.|.[.[.|.].^.>.v.).|.XX|.[.[.[.).).[.|.oX5XXX|.(.(.|.|.(././.H./._._.P.H.G.;.",
"r r v M M ( ! ~ ^ $.-.e.r.r.H._._.`.`.H.;.;.H.`.|.).(.].[.[.].].=.v.[.XXXX|.[.[.XX[.[.[.|.|.|.|.|.(./.(.(.H.v.=.*.v.P.P.H.e.;.-.",
"e r M M v M _ q.q.@.-.r.H._.H.;._.-X`.r.;.H.H.:.(.).).).].].).).).).6X6X|.XX6X[.XX[.oX6X|.XX5X)./././.(.(./.v.v.;.:.H.H.e.;.;.;.",
"e e r M 1.8.5.! T ^ -.-.e._._.H.<X;X`._.H.r.H.(.H.v.H./.(.(.).(.(.|.XX|.).[.XX|.6XoXoXOX).).).(.(.(./.(.(./.H.v.:.v.v.;.;.-.#.#.",
"u M W M ( _ _ ~ ~ e.t.%.;._.<X-X,X-X`.`._.P.P.(.(././.(.(.).(./.:.(.|.|.XXXXXXXX7X7XoX[.|.).).).).(.(.(.(./.H.H.;.H.H.H.e.;.;.;.",
"W W W W 1.8.8.o.v o.e.e.9.G.P.P.`.<X<X_.P._.(._.<X<X|.|.|.).(./.v.|.XXXX0XuX6X7XXX6XOX).5X5X|.5X(.(.(.|.(./.H.H.H.P.P._.P.H.H.e.",
"r W 5.3.W v ~ o.@.t.&X,X2X,X,X,X1X1X<XP.H.(.|.<X|.|.5X<X|.'.|.|.5X7X|.).9XuX7XuX).XX|.|.9X9X|.5X).).|.|.|.(.P.H._._.`.`.`.P.H.;.",
"r T 3.5._ W 7.%X2X-X&X=X&X&X2XqXyX1X1X9X9X|.`.<X`.<X5X5X|.'.|.5X5X9X5X|.9XuX7X7XXX6X5X5X0X9X|.).|.|.|.5X<X)._./.P.P.P.P.P.H.H.e.",
"{ r v q.:X>X:X:Xt.9...C b | Z.I.1X{.{.9X9X<X/././.`.'.<X;X;X5X5X).|.9X0X7XuXuX6X6X6X7X0X0X7X5X(.|.|.|.5X<X|.`.`.`._.P.H.H.H.e.e.",
"v ( %XwX*XN e x x D X.X.X.Z.L.L.I.J.x.x.b.J.J.x.x.x.H.(.<X5X9X9X5X6XuX0X5X6XuX6X6XXX9XuX9X7X5X/.|.|.|.5X<X'.'.<X0X8X`.H.e.%.%.%.",
"N u.u.L 7 x n g 4.*X=XX.c B X.A.Q.k.f.m.R..XR.N.T.c. .c.J.rXT. X9X5X5X7X7X7XuXaX9X5X<X<X9X9X|./.|.).|.5X5X`.`.;X8X<X-XP.G.@.%.9.",
"Y J n J k 7 7 k @X@XU B B F g.A.Q.Y.m.m.l.l.M.R.+XW.m.R.Y.}.c.T.5X|.6XuXuX7X0X7X|.5X5X'.`.(.|.|.v.|.9X5X`.`.;X;X;X_.P.&XI.K.K.&X",
"k 7 5 q q 7 5 q m J A 4.4.F Z A.k.z.m.M.n.l.n.B.M.M.Y.R.R.}.T.}.J.b.]. X6X6X6XXX<X'.'.'.<X9X5X|.<X6X5X<X<X5X<X`.P.P.`.,X&X9.D b ",
"% ; 9 q 9 4 ; 4 j n J A A c F E.h.s.f.m.M.M.m.m.m.m.W.U.R.N.c.N.W.T.T.}. XrXtX5X_.'.<X<X;X'.|.<X'.`.`.1X8X1X|.{.<XI.%...b x g g ",
"$ $ 2 a 8 $ $ 4 q k k n A D U V.F.k.s.f.m.m.m.m.m.m.W.k.Y.f.d.d.!.R.R.R.T.}.1X{.P.G.;.P.8XeX0X5X<X3XiXiXyX{.J.T. . .X.....N g 7 ",
"& & * 2 2 * % * 8 q q k I I A B g.s.k.z.z.l.z.m.z.f.U.h.Y.m.c.m.z.z.M.m.N.R.}.J.{.9XpXpX8X`._.-X3XiXiX3XQ.T.c.d.k.g.Z B m n n n ",
"O & = & & 2 2 $ 2 8 4 ; 5 f m D z V h.z.m.z.z.U.U.F.U.h.A.k.f.f.s.z.m.z.m.Y.W.J.j.G.,X4X4X,XI.I.Z.G.X.C  .c.m.s.h.k.A.4.D k 5 ; ",
"o . O 1 = O O = $ & % ; 5 5 7 l B B Z g.k.z.U.Y.F.F.F.g.h.k.g.k.a.h.z.s.a.f.c.j.X.| C b b x b C D | X.X.g.g.h.k.a.g.V.D A n G G ",
"o o o O # = @ O . & % % ; 5 5 g A V.C.A.A.A.k.A.F.g.g.Z Z Z Z k.g.h.g.g.Z a.E.A.X.X.h 5 B F C Z 4.D F X.E.A.A.k.g.g.U D m k 9 4 ",
"o o O @ # @ O . . = 2 - 8 9 5 7 g A S S Z F g.g.g.F i.F F X.g.A.D.V.X.j.j.Z X.Z V.F h h F i.Z V.B B F F C.i.Z V V S A l j 9 ; - ",
"o + # # # @ O . O i p 8 8 4 4 9 7 g g g h B B F F B S S S F F V.F F c X.L.Z.A.Z.4.S h S D.C.i.C.B B S B D z h h h l l j 9 8 ; - ",
"  o + # # + @ O = p a 8 ; 4 9 q 9 q 7 7 g g h B A h c h A D c B c D c c 4.Z.Z.4.F c h p.#XS.i.i.S D D h B f h l f f 9 9 8 ; - * ",
"    o + o o + O = i p 8 ; 4 q q 4 9 5 5 f 7 f g A l l l A D h g g A g g D D D c m l h U S.S.p.F D D D h l f j k 5 4 4 4 - * & & ",
"X o o o     + + O & p 8 4 4 9 4 4 8 8 7 q 7 5 7 k j l l m I m g 5 g g I U m m A l l l l U V.p.F S D D g n f q q 4 - * - - & & & ",
"+ + o X     . . o O - 8 ; 4 9 * - 4 4 8 q 5 ; 5 9 j H k l J k g l l P 0.U c m g f 7 f g l D U A B A m f k q 9 8 4 * & = 2 = & & ",
"X X             O O = - % ; 9 * * - - 4 5 4 ; ; 9 j J k 9 j 5 f : f l A l l m 7 ; ; 5 g g m A c B c g ; 5 4 8 8 2 & O = 2 = & & "
};
