/* XPM */
static char *fc42ab8a1b3b4126827665a5e3b8296aHBexR6DRMXASWhdX[] = {
/* columns rows colors chars-per-pixel */
"64 64 188 2 ",
"   c None",
".  c #0C0000",
"X  c #130200",
"o  c #001D18",
"O  c #2A1D19",
"+  c #002F2D",
"@  c #063534",
"#  c #163938",
"$  c #2C2522",
"%  c #372D2B",
"&  c #27312F",
"*  c #37302E",
"=  c #38312F",
"-  c #2B3432",
";  c #3A3836",
":  c #473F3E",
">  c #1B413F",
",  c #554837",
"<  c #47423F",
"1  c #284644",
"2  c #3C4B4A",
"3  c #324746",
"4  c #354E66",
"5  c #3D5469",
"6  c #385067",
"7  c #325877",
"8  c #3A5B77",
"9  c #355B79",
"0  c #385C7A",
"q  c #315674",
"w  c #2F5573",
"e  c #4A4342",
"r  c #434549",
"t  c #464A4D",
"y  c #4A4A4C",
"u  c #544D44",
"i  c #534E4D",
"p  c #5D4947",
"a  c #4B504F",
"s  c #5D5346",
"d  c #5B544C",
"f  c #575149",
"g  c #464F5A",
"h  c #435353",
"j  c #4C535C",
"k  c #4A5258",
"l  c #535454",
"z  c #5B5654",
"x  c #5B5B5B",
"c  c #7C4A49",
"v  c #63594D",
"b  c #60564A",
"n  c #645C53",
"m  c #615F5C",
"M  c #655853",
"N  c #795755",
"B  c #696055",
"V  c #6E655C",
"C  c #666059",
"Z  c #71685F",
"A  c #7E605F",
"S  c #475360",
"D  c #495562",
"F  c #5F6564",
"G  c #656463",
"H  c #6B6767",
"J  c #6D6B6B",
"K  c #696867",
"L  c #746C63",
"P  c #726F6D",
"I  c #7A6766",
"U  c #6A706F",
"Y  c #72706E",
"T  c #7A746D",
"R  c #6D7171",
"E  c #6F7877",
"W  c #757473",
"Q  c #797776",
"!  c #7A7877",
"~  c #7C7A7A",
"^  c #757A7A",
"/  c #9F3F3C",
"(  c #BC2B24",
")  c #B9332E",
"_  c #A93E3A",
"`  c #B93A36",
"'  c #D50700",
"]  c #CA1D10",
"[  c #C03A36",
"{  c #A4413D",
"}  c #8B4C4A",
"|  c #9C4947",
" . c #9B4C4A",
".. c #984B49",
"X. c #8C5452",
"o. c #875A59",
"O. c #8E5A58",
"+. c #915856",
"@. c #B44945",
"#. c #817B75",
"$. c #817F7E",
"%. c #8B7A79",
"&. c #836766",
"*. c #82807E",
"=. c #89837D",
"-. c #2C5D81",
";. c #315F82",
":. c #346184",
">. c #1C72A3",
",. c #1578AD",
"<. c #1D79AD",
"1. c #1D76A8",
"2. c #0B7EB6",
"3. c #067DB5",
"4. c #147FB6",
"5. c #0E77AC",
"6. c #2274A5",
"7. c #2778A9",
"8. c #2176A8",
"9. c #1380B8",
"0. c #1A81B9",
"q. c #0D80B8",
"w. c #7C8282",
"e. c #0286C1",
"r. c #0B87C3",
"t. c #018CCB",
"y. c #008AC7",
"u. c #1288C3",
"i. c #0491CF",
"p. c #0891CF",
"a. c #0194D3",
"s. c #0892D0",
"d. c #0B98D5",
"f. c #0698D4",
"g. c #1399D6",
"h. c #1B9AD7",
"j. c #209BD7",
"k. c #249CD8",
"l. c #2B9FD9",
"z. c #2FA0DA",
"x. c #34A1DB",
"c. c #3CA5DD",
"v. c #41A7DF",
"b. c #42A8DF",
"n. c #45A9E0",
"m. c #4CADE2",
"M. c #50AFE3",
"N. c #54B1E5",
"B. c #5AB4E6",
"V. c #5EB6E8",
"C. c #60B7E9",
"Z. c #63BAEA",
"A. c #6ABEED",
"S. c #72C2EF",
"D. c #848383",
"F. c #898786",
"G. c #898887",
"H. c #8C8B8B",
"J. c #878888",
"K. c #908F8E",
"L. c #8F918F",
"P. c #92908F",
"I. c #8F8F90",
"U. c #908F90",
"Y. c #8F9191",
"T. c #949393",
"R. c #989796",
"E. c #979798",
"W. c #9E9D9D",
"Q. c #9C9B9B",
"!. c #989798",
"~. c #A09F9F",
"^. c #A09F9E",
"/. c #A3A19F",
"(. c #A2A1A2",
"). c #A4A3A3",
"_. c #A6A5A5",
"`. c #A4A3A4",
"'. c #A8A7A7",
"]. c #A7A7A9",
"[. c #A9A8A8",
"{. c #AEADAD",
"}. c #ABABAB",
"|. c #A9A8A8",
" X c #B0AFAF",
".X c #AFAFB0",
"XX c #B0AFB1",
"oX c #B2B1B1",
/* pixels */
"                                                                                                                                ",
"                                                          Y.H _ { H P.                                                          ",
"                                                G ! D.F.H.H k ) ) h H G.F.$.Q G                                                 ",
"                                            W W ~ ~ W W ^ e @ +.X.+ e Q W W ~ ~ W W                                             ",
"                                    F.W W ~ D.$.! ! W W Q Y $ $.^ $ W W W W ! ! ~ D.$.W W F.                                    ",
"                                  F.D.! ~ ! W W W Q D.H.E.H.D.D.D.D.H.R.H.F.Q W W W ! ~ ~ D.G.                                  ",
"                            m ~ H.W Q ~ W ! ~ H.W.U._.{.XX~.!.T.T.T.~.XX{._.T.W.H.*.W W ~ W W H.~ m                             ",
"                          _ @.h * W Q W D.D._.{.XXQ.Q._.!.*._.F.K.(.Q.(.Q.Q.W.{.}.(.F.F.W W W % k @._                           ",
"                        J ` ] p - W *.!.{.Q.W.!.W._.*.P W $.^.T.T.Q.(.F.K.K.^.[.R.T.W.{.Q.D.Y - p ] ` J                         ",
"                      T.K 2 X.%.i W (..X{._.T._.! _.T._._.T.D.R.T.=.W.(.{.Q.T.~._.H.{.(.'.(.Q l %.X.3 K T.                      ",
"                    K.F.l * 2 D.D.R.U.U.I.'.E.'.W.H.Q Z n x j D S k l C V T R.}._.!.R.F.Q.T.E.F.D.3 * l F.H.                    ",
"                  D.D.Y ~ J H J.K.!.~.E._.U.U.T V j -.>.3.e.y.t.t.t.e.3.>.:.g n T E.(.oXR.(.T.T.G.G P ~ W D.D.                  ",
"                W ~ W ~ W H.R.W.!.F.~.!.(.#.f 9 5.t.a.a.a.a.s.a.s.a.a.a.a.a.t.,.9 d D.^.!.Q.~ H.Q.R.K.W ~ W ~ P                 ",
"                K ! ~ W G.{.Q.G.'.H.(.U., 8 4.a.a.a.a.s.a.a.a.a.a.a.a.a.s.s.a.a.a.2.9 , F.U.T._.H.^.[.H.W Q ~ J                 ",
"              W $.~ W D.{.|.H._.H._.$.t 7.a.a.p.a.a.a.a.a.a.f.a.a.a.a.a.a.a.a.a.s.a.a.7.y $._.T.H.Q ^. XD.W ~ *.Q               ",
"              ~ Q W *.P.W._.H.oX~.v 5 r.a.i.a.a.a.a.a.a.f.d.d.g.d.d.d.d.a.a.a.a.a.a.t.a.r.5 s _._.~ W.^.H.D.W ~ ~               ",
"            W ~ Q Q W.{.!.H.K.[.V 9 t.a.s.a.a.a.a.d.d.g.h.h.h.h.h.h.h.h.g.g.f.a.f.a.a.p.a.t.0 V _.D.~ E.XX^.W W ~ W             ",
"          ! ~ ! W T..X(.T.Q.H.L 7 a.s.a.a.a.f.d.g.h.h.k.k.k.k.l.l.k.k.k.h.h.h.g.f.a.a.a.a.a.a.7 L T.W.{.R.{.R.W Q ~ W           ",
"        D.D.Q ! Q !..XT.R.XXQ 4 t.a.t.a.a.a.d.g.j.k.k.l.l.l.l.z.z.l.l.l.l.k.k.h.g.d.a.a.a.t.a.t.4 Q XXR.R.{.E.W ! W D.F.        ",
"        F.W ! W !.Q.D.F.{.U.t u.a.a.a.a.f.g.h.k.k.l.l.z.x.x.x.x.x.x.x.x.x.l.l.l.k.h.g.f.a.a.i.a.u.y G.W.^.K.(.Q.W ! W G.        ",
"        I.W W *.{.W.Y T.T.d <.a.s.a.a.f.g.h.k.z.l.z.x.x.c.x.x.c.c.c.c.x.x.x.x.l.l.k.h.g.f.a.a.p.a.1.v T.R.^.R.[.D.W W Y.        ",
"      w.i H ~ !.oXG.T.oXT 7 a.s.a.a.f.g.h.k.k.z.x.x.c.c.c.n.c.n.n.c.c.c.c.x.x.x.z.k.k.h.g.f.a.a.t.a.q Q oXH.D.{.Q.~ K l w.      ",
"      o.1 . m E.W.H.oX(.d 9.a.s.a.a.d.h.k.l.x.x.c.c.c.n.n.n.n.n.n.n.n.n.c.c.c.x.x.x.l.k.h.d.a.a.s.a.9.d W.T.'.W.T.x . 3 o.      ",
"    { ' | x P T.U.F.~.#.9 a.t.a.f.d.h.h.l.z.x.x.c.c.v.n.n.n.m.m.m.m.n.n.n.n.n.c.x.x.l.k.k.g.f.a.a.s.a.9 #.Q.T.Q.T.W G  .' _     ",
"    }  .} H.$.E.H.Q.W.s <.a.a.a.f.g.h.k.l.x.x.c.c.n.n.n.m.m.M.m.M.m.m.m.n.n.n.c.c.c.x.l.k.h.g.f.a.t.a.<.d W.W.G.T.D.H.} | c     ",
"    R > # i H.E.U.W.W.g t.a.a.a.f.g.k.l.x.x.c.n.n.n.m.M.M.M.N.N.N.N.N.m.M.m.n.b.c.c.x.z.l.k.g.d.a.a.a.t.j Q.H.Q.R.H.e @ # E     ",
"    G.e z Y I.Q.Q.R.=.-.a.s.a.a.g.h.k.z.x.c.c.n.n.m.m.N.M.B.B.B.B.B.B.N.M.M.m.n.b.c.c.x.l.k.h.g.a.a.i.a.-.=.(.Q.Q.H.W z : G.    ",
"    F.! ~ H.'.Q.R.T.n 6.a.a.a.f.g.h.l.x.x.c.c.n.n.m.N.N.B.V.V.V.C.V.B.B.N.M.m.m.n.c.c.x.x.k.j.g.f.a.p.a.6.B E.G.H.[.H.~ Q G.    ",
"    F.W W T.Q.F.F._.n 2.a.s.a.d.h.k.z.x.c.c.n.n.m.N.N.B.V.V.C.Z.Z.V.V.V.B.N.M.m.n.n.c.x.z.l.k.h.f.a.a.a.2.n (.D.F.XXT.W Q D.    ",
"  ~ ~ ! W ~.T.D._._.l e.a.a.a.d.h.k.l.x.c.c.n.n.m.N.B.B.C.Z.Z.A.A.A.Z.V.V.N.M.m.n.n.c.c.x.z.k.h.f.a.a.a.e.l _.W.F.XXQ.W Q $.$.  ",
"  W ~ ~ W U.T.T.'.K.j t.s.a.a.d.h.k.l.x.c.c.n.m.m.N.B.V.Z.A.A.A.A.A.A.V.V.B.N.m.n.n.c.c.x.l.k.h.d.a.a.s.t.j T.(.U.W.H.W ~ ~ P   ",
"    ~ ~ W T.(.!.I.H.S t.a.a.a.d.h.l.z.x.c.c.n.m.M.N.B.V.Z.A.A.S.S.A.A.C.V.B.N.M.m.n.v.c.x.l.k.h.d.a.a.s.t.j H.T.T.W.R.W ~ !     ",
"    W ~ W (.R.W.U.R.S t.f.a.a.d.h.k.z.x.c.v.n.m.m.N.B.V.Z.A.S.S.S.A.A.V.V.B.N.M.m.n.c.c.x.z.l.h.d.a.a.a.t.g ^.R.F.W.(.W Q Q     ",
"    ~ W W Q.R.D.Q.^.j y.f.a.a.d.h.k.z.x.x.c.n.m.N.N.B.V.Z.Z.Z.A.A.A.A.Z.B.N.N.m.m.b.c.c.x.z.k.h.d.a.a.s.t.j ^.!.T. XQ.W ! ~     ",
"    W ~ W T.(.T.!.K.l e.a.a.a.d.h.k.z.x.c.c.n.n.m.N.B.V.V.Z.Z.S.A.A.C.V.V.N.N.m.n.n.c.c.x.l.j.h.d.a.i.a.e.l K.T.U.(.T.W ~ W     ",
"    ~ ~ W D.W.T.R.).M 2.a.a.a.d.h.k.z.x.x.v.n.n.m.m.N.N.V.Z.Z.Z.Z.Z.C.V.B.N.M.m.n.b.c.c.x.l.k.g.f.a.a.a.3.n Q.~ !.^.F.W ! ~     ",
"    ~ ~ W H.oXH.!.XXI >.a.s.a.a.g.k.z.z.x.c.v.n.m.m.N.N.N.B.V.V.C.V.B.B.N.N.m.n.n.b.c.x.z.z.k.g.a.a.p.a.>.L {.F.^.oXK.W ! ~     ",
"    *.W W *.}.H.D.'.~ 9 a.i.a.a.g.h.k.z.x.c.v.v.n.m.M.M.B.N.B.B.B.B.N.N.M.m.m.n.b.c.x.x.z.k.h.d.f.a.i.a.;.Q oX(.$.'.D.W W D.    ",
"    F.Q ~ ~ _.Q.~ G.D.j t.a.a.a.d.h.k.k.z.x.c.c.n.n.n.M.M.N.N.N.N.N.N.M.m.n.n.n.c.c.x.x.k.j.h.f.a.a.i.t.j F.!.H.F._.~ ~ ~ F.    ",
"    I.~ x P D.T.|.).E.B ,.a.a.a.f.g.h.k.z.x.x.c.v.n.n.m.m.M.m.M.M.m.m.m.m.n.n.n.c.x.x.z.k.h.d.f.a.a.a.,.v {._.(.R.D.P x ~ H.    ",
"    Y.R o & K T.T.R..XD.9 a.s.a.a.f.h.h.z.x.x.x.c.n.n.n.n.n.n.m.m.m.n.n.n.b.c.c.x.x.l.l.j.h.f.a.a.p.a.7 D.W.G.H.T.J - o J Y.    ",
"      N c I F.F.G.H.[.H.u 0.a.s.a.f.d.h.k.k.z.x.x.c.c.v.n.n.n.n.n.n.n.n.c.c.c.c.x.z.l.k.h.d.a.a.i.a.0.u K./.[.T.F.F.I N N       ",
"      ) ' O.F ! E.F.D.Q.#.7 a.t.a.a.f.g.h.k.l.z.x.x.x.c.c.v.c.v.v.c.c.c.c.c.x.x.l.k.k.h.g.f.a.a.i.a.w *.`.H.R.R.Q x +.' `       ",
"       ...3 O J R.[.R.Q.[.v 1.a.p.a.a.f.g.h.k.k.z.z.x.x.x.c.c.c.c.c.c.c.x.x.x.l.l.k.h.g.a.a.a.p.a.1.v _.T.(.|.R.J O 1 ....      ",
"        E e J ^ Q.oXH.H.XX~ t u.a.t.a.a.d.g.h.k.l.l.l.z.x.x.x.x.x.x.x.x.x.l.l.k.k.h.d.f.a.a.t.a.r.y $.'.F.T.XXQ.! J < ^         ",
"        E.H.W Q ~ _.(.!.K.'.#.6 a.a.i.a.a.f.d.g.h.k.k.l.l.l.l.l.z.l.l.l.l.k.k.h.g.d.f.a.a.i.a.i.6 Q (.T.D._.[.w.W W H.R.        ",
"          G.W ~ W U.Q.R._.Q._.L 7 a.a.a.a.a.a.d.g.h.h.k.k.k.l.l.l.k.k.k.h.h.h.g.d.a.a.a.i.a.a.7 L (.U.'.R.R.H.W Q W G.          ",
"            F.W ! Y T.'.F.W (.E.b 9 t.a.s.a.a.f.a.d.g.g.h.h.h.h.h.h.h.h.g.g.d.a.a.a.a.p.a.t.9 M E._.F.R.oXR.W ~ Q F.            ",
"            ~ ~ ~ W D.(.[.(.T.W.}.H S u.a.i.a.a.a.a.a.a.d.d.d.d.d.d.d.f.f.a.a.a.a.a.s.a.r.S L [.~.U._._._.D.W ~ ~ ~             ",
"              K ~ Q W F.[.R.W.(.T.].P r 8.a.a.p.a.a.a.a.a.a.a.a.a.a.a.a.a.a.a.i.p.a.a.6.r P (.F.'.~.T.[.F.W Q ~ K               ",
"                W D.Q W ~ (._.J H.Q.Q.U.s 8 4.a.a.a.i.i.a.a.a.a.f.a.a.s.p.i.a.a.a.4.8 b T.Q.Q.U.D.oX^.~ W ! D.Q                 ",
"                  Q ~ ~ W H._.[._.R.`.Q.(.Y d 0 ,.t.a.a.a.a.s.s.a.f.a.a.a.a.y.<.8 u P '.Q.(.R.(.'.'.H.W ! ~ W                   ",
"                    W ~ ~ W D._.E.!.~ F.Q.E.Q.#.n g ;.>.4.e.y.t.t.t.e.4.6.-.g M #._.Q.U.T.Q.Q.T._.F.W ! ~ ! J                   ",
"                    W D.W ! ~ W $.U.H.Q.!.Q.U..XQ.H.$.L d x j S S j x d V D.K.T..X(.D.U.H.G.T.D.W ~ ! W ~ W                     ",
"                      F.G.Y P % a D.K.!.!.}.H.W.!.!.E.Q.U.Q.^.U.K.R.T.U.}.(.U.F..XH.Q.~.E.H.F.l % W W G.F.                      ",
"                        I.R.; @ I =.x $.`. X(.!.!.^.D.Q.*.G.H.D.R._.I.*.(.F.'.!.!.F.}.'.*.z $.I # ; U.H.                        ",
"                          T.^ / ( b & P D.T.}.Q._._.W.W.U.'.U.T.T.K.T.T.F.Q.XX_.H.Q.Q.D.P - p ( | ^ K.                          ",
"                              ( [ h X W Q W ~ $.E._..X!._.{.XX~.^.}.{._.T.{.(.Q.D.~ W W W X 2 [ (                               ",
"                                N W $.W W ! W ! W ! D.$.K.R.W.U.K.^.R.K.*.D.~ W Q W ~ W W $.W N                                 ",
"                                    U.H.F.~ ~ ~ ! ! W ! Y W W W W W W W W W W Q ~ ~ ~ D.H.K.                                    ",
"                                          ~ K W ! D.*.*.~ ~ ~ ! ! ~ ~ ~ $.D.*.~ W H ~                                           ",
"                                                    ! W ! W ~ ! ! ~ W ! W Q                                                     ",
"                                                                                                                                ",
"                                                                                                                                "
};
