/* XPM */
static char *_684505683392[] = {
/* columns rows colors chars-per-pixel */
"64 64 175 2 ",
"   c #64727E",
".  c #687A88",
"X  c #6C7D8C",
"o  c #7F8081",
"O  c #788B9B",
"+  c #7C8E9E",
"@  c #7E92A3",
"#  c #878888",
"$  c #8F9090",
"%  c #949597",
"&  c #98999A",
"*  c #8498AA",
"=  c #97A2AA",
"-  c #8AA0B2",
";  c #8CA1B4",
":  c #8DA2B5",
">  c #8DA3B6",
",  c #8EA4B8",
"<  c #90A7BA",
"1  c #92A8BB",
"2  c #94ABBF",
"3  c #A2A3A4",
"4  c #A9AAAB",
"5  c #A8AAAC",
"6  c #AAACAD",
"7  c #ABADAE",
"8  c #AFB0B0",
"9  c #A8B3BD",
"0  c #A9B4BE",
"q  c #BABCBD",
"w  c #95ADC1",
"e  c #9FB8CE",
"r  c #ADB8C2",
"t  c #A0B8CE",
"y  c #A2BBD0",
"u  c #A3BDD4",
"i  c #A6BFD6",
"p  c #B6C2CD",
"a  c #AAC6DD",
"s  c #ABC6DD",
"d  c #ABC6DE",
"f  c #ABC7DF",
"g  c #AFC9E0",
"h  c #AEC9E2",
"j  c #B1CAE0",
"k  c #B0CBE4",
"l  c #B2CEE7",
"z  c #B3D0EA",
"x  c #B4D2EC",
"c  c #B6D3ED",
"v  c #B6D4ED",
"b  c #B6D4EF",
"n  c #B6D5EF",
"m  c #B6D5F0",
"M  c #B7D5F0",
"N  c #B8D6F0",
"B  c #B8D6F1",
"V  c #B9D7F1",
"C  c #BAD7F1",
"Z  c #BBD8F1",
"A  c #BBD8F2",
"S  c #BCD9F2",
"D  c #BDD9F2",
"F  c #BDDAF2",
"G  c #BEDAF2",
"H  c #BFDBF3",
"J  c #C0C2C4",
"K  c #C7C8C9",
"L  c #C7C8CA",
"P  c #D6D7D8",
"I  c #D7D9DA",
"U  c #D8D9DB",
"Y  c #DCDDDE",
"T  c #DDDEDF",
"R  c #CAD8E3",
"E  c #DCDEE0",
"W  c #C0DBF3",
"Q  c #C1DCF3",
"!  c #C3DCF2",
"~  c #C1DCF4",
"^  c #C2DDF4",
"/  c #C3DDF4",
"(  c #C4DEF4",
")  c #C6DFF5",
"_  c #DFE1E2",
"`  c #C7E0F5",
"'  c #C8E0F6",
"]  c #C8E1F6",
"[  c #C9E1F6",
"{  c #CAE2F6",
"}  c #CBE2F7",
"|  c #CBE3F7",
" . c #CDE4F7",
".. c #CEE4F8",
"X. c #CFE5F8",
"o. c #D6E4F1",
"O. c #DCEBF7",
"+. c #D0E5F8",
"@. c #D1E6F9",
"#. c #D2E7F9",
"$. c #D4E8FA",
"%. c #D5E9FA",
"&. c #D7EAFA",
"*. c #D7EAFB",
"=. c #D9EBFB",
"-. c #DDEBF8",
";. c #D9ECFC",
":. c #DBEDFC",
">. c #DCEDFC",
",. c #DDEEFD",
"<. c #DEEEFD",
"1. c #DEEFFD",
"2. c #DFEFFD",
"3. c #E0E1E2",
"4. c #E1E6EA",
"5. c #E5E6E8",
"6. c #E8E9EB",
"7. c #E8EAEB",
"8. c #EDEFF0",
"9. c #EFF0F1",
"0. c #E0F0FE",
"q. c #E1F0FE",
"w. c #E1F1FE",
"e. c #E2F1FE",
"r. c #E3F2FF",
"t. c #E4F2FF",
"y. c #E4F3FF",
"u. c #E5F3FF",
"i. c #E6F3FF",
"p. c #E7F4FF",
"a. c #E8F4FF",
"s. c #E9F4FF",
"d. c #E9F5FF",
"f. c #EAF5FF",
"g. c #EBF5FF",
"h. c #EBF6FF",
"j. c #ECF6FF",
"k. c #EEF7FF",
"l. c #EFF7FF",
"z. c #EFF8FF",
"x. c #F2F3F4",
"c. c #F4F6F6",
"v. c #F5F6F7",
"b. c #F6F7F8",
"n. c #F7F8F9",
"m. c AliceBlue",
"M. c #F1F8FF",
"N. c #F1F9FF",
"B. c #F2F8FF",
"V. c #F2F9FF",
"C. c #F3F9FF",
"Z. c #F4F9FF",
"A. c #F4FAFF",
"S. c #F5FAFF",
"D. c #F6FAFF",
"F. c #F6FBFF",
"G. c #F7FBFF",
"H. c #F8F8F9",
"J. c #F8F9FA",
"K. c #F9FAFB",
"L. c #F9FCFF",
"P. c #FAFCFF",
"I. c #FAFDFF",
"U. c #FBFDFF",
"Y. c #FCFCFD",
"T. c #FCFDFD",
"R. c #FDFDFD",
"E. c #FCFDFF",
"W. c #FDFEFE",
"Q. c #FCFEFF",
"!. c #FDFEFF",
"~. c #FEFEFE",
"^. c #FEFEFF",
"/. c white",
"(. c None",
/* pixels */
"(.(.(.(.(.(.(.(.(.(.(.(.(.(.(.(.(.(.(.(.(.(.(.(.(.(.(.(.(.(.(.(.(.(.(.(.(.(.(.(.(.(.(.(.(.(.(.(.(.(.(.(.(.(.(.(.(.(.(.(.(.(.(.(.",
"(.(.(.(.(.(.(.(.(.(.(.(.(.(.(.(.(.(.(.(.(.(.(.(.(.(.(.(.(.(.(.(.(.(.(.(.(.(.(.(.(.(.(.(.(.(.(.(.(.(.(.(.(.(.(.(.(.(.(.(.(.(.(.(.",
"(.(.(.(.(.(.(.(.(.(.(.(.(.(.(.(.(.(.(.(.(.(.(.(.(.(.(.(.(.(.(.(.(.(.(.(.(.(.(.(.(.(.(.(.(.(.(.(.(.(.(.(.(.(.(.(.(.(.(.(.(.(.(.(.",
"(.(.(.(.(.(.(.(.(.(.(.(.(.(.(.(.(.(.(.(.(.(.(.(.(.(.(.(.(.(.(.(.(.(.(.(.(.(.(.(.(.(.(.(.(.(.(.(.(.(.(.(.(.(.(.(.(.(.(.(.(.(.(.(.",
"(.(.(.(.(.(.(.(.(.(.(.(.(.(.(.(.(.(.(.(.(.(.(.(.(.(.(.(.(.(.(.(.(.(.(.(.(.(.(.(.(.(.(.(.(.(.(.(.(.(.(.(.(.(.(.(.(.(.(.(.(.(.(.(.",
"(.(.(.(.(.(.(.(.(.(.(.(.(.(.(.(.(.(.(.(.(.(.(.(.(.(.(.(.(.(.(.(.(.(.(.(.(.(.(.(.(.(.(.(.(.(.(.(.(.(.(.(.(.(.(.(.(.(.(.(.(.(.(.(.",
"(.(.(.(.(.(.(.(.(.(.(.(.(.(.(.(.(.(.(.(.(.(.(.(.(.(.(.(.(.(.(.(.(.(.(.(.(.(.(.(.(.(.(.(.(.(.(.(.(.(.(.(.(.(.(.(.(.(.(.(.(.(.(.(.",
"(.(.(.(.(.(.(.(.(.(.(.(.(.(.(.(.(.(.(.(.(.(.(.(.(.(.(.(.(.(.(.(.(.(.(.(.(.(.(.(.(.(.(.(.(.(.(.(.(.(.(.(.(.(.(.(.(.(.(.(.(.(.(.(.",
"(.(.(.(.(.(.(.(.(.(.(.(.(.(.(.(.(.(.(.(.(.(.(.(.(.(.(.(.(.(.(.(.(.(.(.(.(.(.(.(.(.(.(.(.(.(.(.(.(.(.(.(.(.(.(.(.(.(.(.(.(.(.(.(.",
"(.(.(.(.(.(.(.(.(.(.(.(.(.(.(.(.(.(.(.(.(.(.(.(.(.(.(.(.(.(.(.(.(.(.(.(.(.(.(.(.(.(.(.(.(.(.(.(.(.(.(.(.(.(.(.(.(.(.(.(.(.(.(.(.",
"(.(.(.(.(.(.(.(.(.(.(.(.(.(.(.(.(.(.(.(.(.(.(.(.(.(.(.(.(.(.(.(.(.(.(.(.(.(.(.(.(.(.(.(.(.(.(.(.(.(.(.(.(.(.(.(.(.(.(.(.(.(.(.(.",
"(.(.(.(.(.(.(.(.(.(.(.(.(.(.(.(.(.(.(.(.(.(.(.(.(.7./././.c.(.(.(.(.(.(.(.(.(.(.(.(.(.(.(.(.(.(.(.(.(.(.(.(.(.(.(.(.(.(.(.(.(.(.",
"(.(.(.(.(.(.(.(.(.(.(.(.(.(.(.(.(.(.(.(.(.(.(.5./././././././.5 (.(.(.(.(.(.(.(.(.(.(.(.(.(.(.(.(.(.(.(.(.(.(.(.(.(.(.(.(.(.(.(.",
"(.(.(.(.(.(.(.(.(.(.(.(.(.(.(.(.(.(.(.(.(.(.K./././././././././.(.(.(.(.(.(.(.(.(.(.(.(.(.(.(.(.(.(.(.(.(.(.(.(.(.(.(.(.(.(.(.(.",
"(.(.(.(.(.(.(.(.(.(.(.(.(.(.(.(.(.(.(.(.(.b././././././././././.$ (.(.(.(.(.(.(.(.(.(.(.(.(.(.(.(.(.(.(.(.(.(.(.(.(.(.(.(.(.(.(.",
"(.(.(.(.(.(.(.(.(.(.(.(.(.(.(.(.(.(.(.(.U /././././././././././.q (.(.(.(.(.(.(.(.(.(.(.(.(.(.(.(.(.(.(.(.(.(.(.(.(.(.(.(.(.(.(.",
"(.(.(.(.(.(.(.(.(.(.(.(.(.(.(.(.(.(.(.(././././././././././././.Y 4 8.W./.T.6.8 (.(.(.(.(.(.(.(.(.(.(.(.(.(.(.(.(.(.(.(.(.(.(.(.",
"(.(.(.(.(.(.(.(.(.(.(.(.(.(.(.(.(.(.(.E /././././././././././././././././././././.J.% (.(.(.(.(.(.(.(.(.(.(.(.(.(.(.(.(.(.(.(.(.",
"(.(.(.(.(.(.(.(.(.(.(.(.(.(.(.(._ ~./././././././././././././././././././././././././.3.(.(.(.(.(.(.(.(.(.(.(.(.(.(.(.(.(.(.(.(.",
"(.(.(.(.(.(.(.(.(.(.(.(.(.(.J /././././././././././././././././././.^.G.M.M.S.!././././.H.(.(.(.(.# 3 o (.(.(.(.(.(.(.(.(.(.(.(.",
"(.(.(.(.(.(.(.(.(.(.(.(.(.& /./././././.L.V.M.S.!./.^.!././.Q.^./.G.p.r.r.r.r.t.V.^./././.9.(.J./././././.I (.(.(.(.(.(.(.(.(.(.",
"(.(.(.(.(.(.(.(.(.(.(.(.(.Y././././.L.a.r.r.r.r.i.Q.^.D.j.i.r.i.m.r.r.r.r.r.r.r.r.j././././././././././././.n.(.(.(.(.(.(.(.(.(.",
"(.(.(.(.(.(.(.(.(.(.(.(.(././././.L.t.r.r.r.r.t.P.F.p.r.r.r.r.r.r.r.r.r.r.r.r.r.r.r.N././././././././././././.T (.(.(.(.(.(.(.(.",
"(.(.(.(.(.(.(.(.(.(.(.(.L /./././.a.r.r.r.r.r.C.k.r.r.r.r.r.r.r.r.r.r.r.r.r.r.r.r.r.t.E././././././././././././.(.(.(.(.(.(.(.(.",
"(.(.(.(.(.(.(.(.(.(.x./././././.G.r.r.r.r.r.u.f.r.r.r.r.r.r.r.r.r.r.r.r.r.r.r.u.k.S.G.U.^.L.S.S.I./././././././.(.(.(.(.(.(.(.(.",
"(.(.(.(.(.(.(.(.(.9././.^.V.g.f.p.r.r.r.r.r.r.r.r.r.r.r.r.r.r.r.r.r.r.r.r.r.u.k.h.f.j.m.F.U.f.r.r.i.C.^././././.(.(.(.(.(.(.(.(.",
"(.(.(.(.(.(.(.(.7 /./.L.i.r.r.r.r.r.r.r.r.r.r.r.r.r.r.r.r.r.r.r.r.r.r.r.r.r.r.r.r.r.r.r.r.t.l.s.r.r.r.a.E././.^.(.(.(.(.(.(.(.(.",
"(.(.(.(.(.(.(.(.Y./.U.t.r.r.r.r.r.r.r.r.r.r.r.r.r.r.r.r.r.r.r.r.r.r.r.r.r.r.r.r.r.r.r.r.r.r.r.r.r.r.r.r.a.^./.v.(.(.(.(.(.(.(.(.",
"(.(.(.(.(.(.(.(././.j.r.r.r.r.r.r.r.r.r.r.r.r.r.r.r.r.r.r.r.r.r.r.r.r.r.r.r.r.r.r.r.r.r.r.r.r.r.r.r.r.r.r.C./././.P (.(.(.(.(.(.",
"(.(.(.(.K Y./././.^.z.F.I.L.B.u.r.r.r.r.r.r.r.r.r.r.r.r.r.r.r.r.r.r.r.r.r.r.r.r.r.r.r.r.r.r.r.r.r.r.r.r.r.f././././.6 (.(.(.(.(.",
"(.(.7 /././.Q./././.^.C.d.t.r.r.r.r.r.r.r.r.r.r.r.r.r.r.r.r.r.r.r.r.r.r.r.r.r.r.r.r.r.r.r.r.r.r.r.r.r.r.r.i././././.R.(.(.(.(.(.",
"(.(.M.f.u.r.r.u.Q.G.i.r.r.r.r.r.r.r.r.r.r.r.r.r.r.r.r.r.r.r.r.r.r.r.r.r.r.r.r.r.r.r.r.r.r.r.r.r.t.h.M.Z.A.A./././././.(.(.(.(.(.",
"(.r r.r.r.r.r.A.m.r.r.r.r.r.r.r.r.r.r.r.r.r.r.r.r.r.r.r.r.r.r.r.r.r.r.r.r.r.r.r.r.r.r.r.r.r.t.M.!.E.U.E.^././././././.(.(.(.(.(.",
"(.R r.r.r.r.r.l.r.r.r.r.r.r.r.r.r.r.r.r.r.r.r.r.r.r.r.r.r.r.r.r.r.r.r.r.r.r.r.r.r.r.r.r.r.t.j.f.y.r.r.r.r.i.j.C.U./.R.(.(.(.(.(.",
"(.p r.r.r.r.r.r.r.r.r.r.r.r.r.r.r.r.r.r.r.r.r.r.r.r.r.r.r.r.r.r.r.r.r.r.r.r.r.r.r.r.r.r.r.r.r.r.r.r.r.r.r.r.r.r.r.d.4.(.(.(.(.(.",
"(.(.r.r.r.r.r.r.r.r.r.r.r.r.w.r.r.r.r.r.r.r.r.r.r.r.r.r.r.r.r.r.r.r.r.r.r.r.r.r.r.r.r.r.r.r.r.r.r.r.r.r.r.r.r.r.r.r.r.(.(.(.(.(.",
"(.(.! $.e.r.r.r.r.r.r.r.:.{ 1.r.r.r.r.r.r.r.r.r.r.r.r.r.r.r.r.r.r.r.r.r.r.r.r.r.r.r.r.r.r.r.r.r.r.r.r.r.r.r.r.r.r.r.r.o.(.(.(.(.",
"(.(.(.m N /  .X.+.#.{ H S >.r.r.r.r.r.r.r.r.r.r.r.r.r.r.r.r.r.r.r.r.r.r.r.r.r.r.r.r.r.r.r.r.r.r.r.r.r.r.r.r.r.r.r.r.r.r.(.(.(.(.",
"(.(.(.(.n m m m m m V } 0.r.r.r.r.r.r.r.r.r.r.r.r.r.r.r.r.r.r.r.r.r.r.r.r.r.r.r.r.r.r.r.r.r.r.r.r.r.r.r.r.r.r.r.r.r.r.r.(.(.(.(.",
"(.(.(.(.(.y m m m m G ,.r.r.r.r.r.r.r.r.r.r.r.r.r.r.r.r.r.r.r.r.r.r.r.r.r.r.r.r.r.r.r.r.r.r.r.r.r.r.r.r.r.r.r.r.r.r.r.9 (.(.(.(.",
"(.(.(.(.(.(.(.- c m m B %.r.r.r.r.r.r.r.,.{ r.r.r.r.r.r.r.r.r.r.r.r.r.r.r.r.r.r.r.r.r.r.r.r.r.>.r.r.r.r.r.r.r.r.r.r.r.0 (.(.(.(.",
"(.(.(.(.(.(.(.(.(.m m m m ` 2.r.r.r.r.0.D m %.r.r.r.r.r.r.r.r.r.r.r.r.r.r.r.r.r.r.r.r.r.r.r.r. .,.r.r.r.r.r.r.r.r.r.r.r.O.(.(.(.",
"(.(.(.(.(.(.(.(.(.s m m m m B { =.>.X.C m m N %.r.r.r.r.r.r.r.r.r.r.r.r.r.r.[ <.r.r.r.r.r.r.r.;.S 1.r.r.r.r.r.r.r.r.r.r.r.-.(.(.",
"(.(.(.(.(.(.(.(.(.(.m m m m m m m m m m m m m m { q.r.r.r.r.r.r.r.r.r.r.e.' m W q.r.r.r.r.r.r.>.M V &.r.r.r.r.r.r.r.r.r.r.r.= (.",
"(.(.(.(.(.(.(.(.(.(.: m m m m m m m n + m m m m m C | >.r.r.r.r.r.r.w.$.F m m m A %.e.r.r.w.@.B m m m ] ,.r.r.r.r.r.r.r.w.@.j (.",
"(.(.(.(.(.(.(.(.(.(.(.1 m m m m m m (.(., m m m m m m m Z ( ` | ` Q N m m m m m m m V ~ H N m m m m m m m ^ ..#.$.*.+.) B m < (.",
"(.(.(.(.(.(.(.(.(.(.(.(.(.g m n i (.(.(.(.w m m m m m m m m m m m m m m ; f m m m m m m m m m m m m m m m m m m m m m m m m (.(.",
"(.(.(.(.(.(.(.(.(.(.(.(.(.(.(.(.(.(.(.(.(.(.(.n m m m m m m m m m m m > (.(.x m m m m m m m   a m m m m m m m m m m m m m (.(.(.",
"(.(.(.(.(.(.(.(.(.(.(.(.(.(.(.(.(.(.(.(.(.(.(.(.O z m m m m m m m h (.(.(.(.(.t m m m m d (.(.(.@ n m m m m m m m m m u (.(.(.(.",
"(.(.(.(.(.(.(.(.(.(.(.(.(.(.(.(.(.(.(.(.(.(.(.(.(.(.(.(.(.* . (.(.(.(.(.(.(.(.(.(.(.(.(.(.(.(.(.(.(.(.2 k v b l e X (.(.(.(.(.(.",
"(.(.(.(.(.(.(.(.(.(.(.(.(.(.(.(.(.(.(.(.(.(.(.(.(.(.(.(.(.(.(.(.(.(.(.(.(.(.(.(.(.(.(.(.(.(.(.(.(.(.(.(.(.(.(.(.(.(.(.(.(.(.(.(.",
"(.(.(.(.(.(.(.(.(.(.(.(.(.(.(.(.(.(.(.(.(.(.(.(.(.(.(.(.(.(.(.(.(.(.(.(.(.(.(.(.(.(.(.(.(.(.(.(.(.(.(.(.(.(.(.(.(.(.(.(.(.(.(.(.",
"(.(.(.(.(.(.(.(.(.(.(.(.(.(.(.(.(.(.(.(.(.(.(.(.(.(.(.(.(.(.(.(.(.(.(.(.(.(.(.(.(.(.(.(.(.(.(.(.(.(.(.(.(.(.(.(.(.(.(.(.(.(.(.(.",
"(.(.(.(.(.(.(.(.(.(.(.(.(.(.(.(.(.(.(.(.(.(.(.(.(.(.(.(.(.(.(.(.(.(.(.(.(.(.(.(.(.(.(.(.(.(.(.(.(.(.(.(.(.(.(.(.(.(.(.(.(.(.(.(.",
"(.(.(.(.(.(.(.(.(.(.(.(.(.(.(.(.(.(.(.(.(.(.(.(.(.(.(.(.(.(.(.(.(.(.(.(.(.(.(.(.(.(.(.(.(.(.(.(.(.(.(.(.(.(.(.(.(.(.(.(.(.(.(.(.",
"(.(.(.(.(.(.(.(.(.(.(.(.(.(.(.(.(.(.(.(.(.(.(.(.(.(.(.(.(.(.(.(.(.(.(.(.(.(.(.(.(.(.(.(.(.(.(.(.(.(.(.(.(.(.(.(.(.(.(.(.(.(.(.(.",
"(.(.(.(.(.(.(.(.(.(.(.(.(.(.(.(.(.(.(.(.(.(.(.(.(.(.(.(.(.(.(.(.(.(.(.(.(.(.(.(.(.(.(.(.(.(.(.(.(.(.(.(.(.(.(.(.(.(.(.(.(.(.(.(.",
"(.(.(.(.(.(.(.(.(.(.(.(.(.(.(.(.(.(.(.(.(.(.(.(.(.(.(.(.(.(.(.(.(.(.(.(.(.(.(.(.(.(.(.(.(.(.(.(.(.(.(.(.(.(.(.(.(.(.(.(.(.(.(.(.",
"(.(.(.(.(.(.(.(.(.(.(.(.(.(.(.(.(.(.(.(.(.(.(.(.(.(.(.(.(.(.(.(.(.(.(.(.(.(.(.(.(.(.(.(.(.(.(.(.(.(.(.(.(.(.(.(.(.(.(.(.(.(.(.(.",
"(.(.(.(.(.(.(.(.(.(.(.(.(.(.(.(.(.(.(.(.(.(.(.(.(.(.(.(.(.(.(.(.(.(.(.(.(.(.(.(.(.(.(.(.(.(.(.(.(.(.(.(.(.(.(.(.(.(.(.(.(.(.(.(.",
"(.(.(.(.(.(.(.(.(.(.(.(.(.(.(.(.(.(.(.(.(.(.(.(.(.(.(.(.(.(.(.(.(.(.(.(.(.(.(.(.(.(.(.(.(.(.(.(.(.(.(.(.(.(.(.(.(.(.(.(.(.(.(.(.",
"(.(.(.(.(.(.(.(.(.(.(.(.(.(.(.(.(.(.(.(.(.(.(.(.(.(.(.(.(.(.(.(.(.(.(.(.(.(.(.(.(.(.(.(.(.(.(.(.(.(.(.(.(.(.(.(.(.(.(.(.(.(.(.(.",
"(.(.(.(.(.(.(.(.(.(.(.(.(.(.(.(.(.(.(.(.(.(.(.(.(.(.(.(.(.(.(.(.(.(.(.(.(.(.(.(.(.(.(.(.(.(.(.(.(.(.(.(.(.(.(.(.(.(.(.(.(.(.(.(.",
"(.(.(.(.(.(.(.(.(.(.(.(.(.(.(.(.(.(.(.(.(.(.(.(.(.(.(.(.(.(.(.(.(.(.(.(.(.(.(.(.(.(.(.(.(.(.(.(.(.(.(.(.(.(.(.(.(.(.(.(.(.(.(.(."
};
