/* XPM */
static char *_3ca03ccfb224eacd7d37acf1bda02a859oJyeNC2dCBafwO[] = {
/* columns rows colors chars-per-pixel */
"64 64 188 2 ",
"   c #1C0500",
".  c #170B00",
"X  c #1D0B03",
"o  c #1E1207",
"O  c #1D150A",
"+  c #1F1C15",
"@  c #240600",
"#  c #280700",
"$  c #240C02",
"%  c #2A0D01",
"&  c #230F09",
"*  c #320E00",
"=  c #300F08",
"-  c #241204",
";  c #2B1304",
":  c #2E1806",
">  c #24140A",
",  c #2C150A",
"<  c #24190D",
"1  c #2C1A0C",
"2  c #341402",
"3  c #3B1501",
"4  c #341904",
"5  c #3C1A04",
"6  c #331609",
"7  c #331A0B",
"8  c #3C1C0B",
"9  c #2A1710",
"0  c #241D12",
"q  c #2D1C12",
"w  c #341510",
"e  c #341D12",
"r  c #3B1D12",
"t  c #35200D",
"y  c #3D210D",
"u  c #2D2114",
"i  c #2D251A",
"p  c #352213",
"a  c #3C2313",
"s  c #3F2917",
"d  c #33251A",
"f  c #3D2418",
"g  c #3C2A19",
"h  c #401701",
"j  c #431C04",
"k  c #4A1D03",
"l  c #431E0A",
"z  c #491F09",
"x  c #511E01",
"c  c #442106",
"v  c #4D2205",
"b  c #44220C",
"n  c #4C240B",
"m  c #4C290E",
"M  c #532405",
"N  c #582706",
"B  c #542806",
"V  c #5C2B05",
"C  c #52250B",
"Z  c #5A270E",
"A  c #542A0D",
"S  c #5B2C0D",
"D  c #55320B",
"F  c #5C310E",
"G  c #442512",
"H  c #4B2512",
"J  c #452915",
"K  c #4C2A14",
"L  c #42241A",
"P  c #482418",
"I  c #432A19",
"U  c #4C2D1A",
"Y  c #512711",
"T  c #542C13",
"R  c #5A2D12",
"E  c #532D19",
"W  c #5A2E1A",
"Q  c #4D3217",
"!  c #46311C",
"~  c #4D311C",
"^  c #563115",
"/  c #5C3214",
"(  c #5F3817",
")  c #54321B",
"_  c #5C341A",
"`  c #5C3A1D",
"'  c #61270E",
"]  c #612E0E",
"[  c #64320D",
"{  c #6A350E",
"}  c #6D390E",
"|  c #71370F",
" . c #733C0F",
".. c #612E12",
"X. c #682F11",
"o. c #633414",
"O. c #693713",
"+. c #653915",
"@. c #6C3A14",
"#. c #62361A",
"$. c #6A361B",
"%. c #643A1C",
"&. c #6C391C",
"*. c #6C3E1C",
"=. c #6B3C1B",
"-. c #703610",
";. c #713D16",
":. c #733D14",
">. c #70391A",
",. c #703B19",
"<. c #713D18",
"1. c #703E19",
"2. c #733F18",
"3. c #723E19",
"4. c #492B20",
"5. c #443120",
"6. c #4E3623",
"7. c #4F3B23",
"8. c #543522",
"9. c #5D3720",
"0. c #5C3621",
"q. c #563927",
"w. c #533922",
"e. c #5A3A23",
"r. c #5C3A21",
"t. c #503428",
"y. c #603723",
"u. c #643D20",
"i. c #643C22",
"p. c #6A3E21",
"a. c #693D22",
"s. c #6B3F24",
"d. c #6A3E23",
"f. c #643E29",
"g. c #67401F",
"h. c #68401D",
"j. c #69411E",
"k. c #6D411D",
"l. c #754016",
"z. c #764114",
"x. c #7A4417",
"c. c #724319",
"v. c #754018",
"b. c #77431B",
"n. c #71411D",
"m. c #75461C",
"M. c #77461E",
"N. c #74421B",
"B. c #7A451B",
"V. c #7A451D",
"C. c #7A441A",
"Z. c #7E4819",
"A. c #7E481A",
"S. c #7D481B",
"D. c #5C4126",
"F. c #564028",
"G. c #654226",
"H. c #6E4623",
"J. c #6B4224",
"K. c #6C4223",
"L. c #65402B",
"P. c #6C442A",
"I. c #6C492D",
"U. c #724327",
"Y. c #724523",
"T. c #7C4521",
"R. c #754925",
"E. c #7B4A21",
"W. c #7B4A22",
"Q. c #7C4A24",
"!. c #71452A",
"~. c #744A2B",
"^. c #794B29",
"/. c #7C512E",
"(. c #6E4730",
"). c #6E4A31",
"_. c #724C33",
"`. c #7C4F32",
"'. c #735236",
"]. c #7B5030",
"[. c #804B1F",
"{. c #834D1F",
"}. c #844F25",
"|. c #804E29",
" X c #875123",
".X c #88572F",
"XX c #8E592D",
"oX c #905D32",
/* pixels */
"0 i 1 b #._ : 1 ) e.w.L p r m ( +.T E 2 2 n _ v U K C ' $.o.b.c./ 5 z U.{.Z.x k A _ l l H R k o.] S %.K f , 3 j S F O.[ O.o.#._ ",
"+ u ; b #._ ; 1 J ) U a e a K ( o.A K 2 2 n %.A b U C ' ..&.V.m./ 3 z $. XZ.S C S #.b G n R k R o.o.d.K a $ 3 k R O.*.@.*.=.%./ ",
"0 0 ; b #.T ; 1 y ) I 7 > 7 K j.o.A H 4 2 n %.A b H Z ] ..O.2.E.A 2 H #.XX[.S k A #.H G H _ C o.o.o.d.K e @ 3 M / @.3.@.n.*.+.S ",
"0 0 ; b _ K - p 8 U I ; X ; n H./ C G 4 5 E J.T b b o.] &.o.2.W.v 3 H #.oX}.Z k C %.K b n #.o.o.] [ d.G 1   z R o.O.3.@.*.*.+.S ",
"< < 4 G _ H - d a G I - > ; n j./ T G 6 b 9.u.c 2 b $.X.>.>.B.m.n 3 l R .XW.R T C d.E 5 z #.o.S ] o.%.l $   n / o.O.;.@.;.@.@.o.",
"O > 6 U _ G - q f s g & > ; T K./ T G 6 H f._ 3 2 n o.3.>.2.2.c.n 3 3 n |.@.R R C d.E 3 z #...S O.+.%.l $ @ H o.O.@.b.2.b.@.@.O.",
"o > 7 U ` J o 0 g I f - & > ` k.A n l 2 K (._ j 5 T o.T.;.:.} @.j l 2 n R.O.A C M d.T 5 n #.R o.@.O._ H > % Y o.@.@.b.b.b.@.O.[ ",
"< 1 7 U _ J o 0 d 5.1 - & 4 u./ / n 8 % K P.Y j 3 / O.b.@.} 2.O.5 K * W Y.*.C n M %.Y j C R C o.O.F T K , % H o.3.;.b.x.b.} { { ",
"> 1 t K ` U . 0 p g 1 X X 6 G.+.C n 8 2 j P.n 5 h R O.;.:.:.@.@.j 5 3 n k.Y.M C k #.T j C C R o.O.o.M K % 6 n S *.b.x. . .z.3.{ ",
"< 1 J ) ^ b . u g p > 1 1 ; %.+.M A 4 4 E P.b 5 z +.@.;.S.:.2.*.j b 5 Y K.o.v C k W C h C C A R o.S A _ , 7 n =.*.b.x. . .2.2.@.",
"< > I e.T 3 - 0 p s 7 q e t J.+.v c 2 8 _ i.H l z *.;.} Z.z.V.@.j H z Y K.M j C C _ n 3 n C T / k.F A r.e 6 j =.@.b.z. .:.:.;.3.",
"< > J ) T 3 > O p 6.s , e U %.O.A 3 4 G ^ #.E l j +.@.} z.z.W...j E l Y p.M z T C _ n 3 z C C / k.S v 0.e ; j O.[ 2.z. .:.:.@.b.",
"0 1 a K _ j > > 7.~ U ; , J #.+.o.3 6 y r.u.E l j / [ z. .:.T.S k _ j T =.C n _ k W n * z n n R o.S k _ 7 # c O.[ b.B.:.:.:.@.m.",
"0 u J U / c - u F.b w.; 6 G H.O.o.n a t P.#.l 5 T R V S.z.:.b.S C _ j T =.A C ` z W n 3 H H z / =.O.v ^ ; # n =.O.V.B. .} } @.c.",
"0 1 J ) / c - g w.Q w.; 7 K ~.O.S m a t I.C 3 5 R o.[ @.x.B.3.S S R j R =.M n i.C W C j W Y l _ R.*.S E # % j =.@.b.B.:.{ } ;.3.",
"0 > J r._ b - g D.).) ; 4 J %.@.F n 8 a I.j 3 2 R +.[ V B.W.*.M R C j T =.k n f.Y T n z 9.H 5 _ =.o.#.E @ $ 3 =.O.b.S.2.{ @.c.3.",
"< > b r.^ t - ! '.J.T 2 7 ) ~.O.=./ 8 U _.j 8 2 R S N V k.R.d.j n n n R / v n ` T n n z T n j R =.o.R E # $ 5 _ O.| 2.{ { { m.3.",
"< > b ` Q t - I '.H.n 5 8 ~ d.*.*.#.l K _.j 5 5 R @.S M o.J.#.3 n n n / o.B z R _ n j l T n n / =.o.R H % $ 6 T O.-.2.@.[ [ c.3.",
"u - b i.Q ; - ! _.J.j 2 8 K #.*.*./ b U i.j G 5 / *.[ M S %.#.3 j n Y %.o.v j _ _ n 5 l T n C R O.O.o.b ; $ 6 Y =.{ 3.@.[ [ ;.;.",
"d - b i.) ; - ! I.%.n # 4 y %.@.*.A b ) ` m U 5 / O.O.O.o.( _ 3 n n n / k.M k T T n l l H n n R o.=.$.j ; $ 7 E =.] O.O.[ @.;.@.",
"u : m ^ J 7 1 a P.g.) 2 ; 4 d.*.@.R b ) P.` U 5 S [ [ +.*./ Y j Y n M #.R.M v R T n H 5 n Y n A S O./ 2 @ X 6 K $.] o.o.S @.3.:.",
"u 1 K ^ b t 1 a G.H.G.U 4 8 d.R.+.A b ) P.u.) 3 A *.O.o.K.T j j C v A *.Y.v v _ T b G 3 l E z T R O.R * @ X , b / o.R / Z [ ;.b.",
"q 7 K _ y 8 1 a G.~.I.) a y *.R.+.n H ) u.d._ 2 F k.@.+.d.n j n R v v d.Y.S M Y Y b l * l n z R o.=./ 3 & > 1 8 Y / T / S N O.b.",
"> p ^ ^ 4 t 1 7 i.~.I.K I G J.Y.#.Y K U P.H._ j o.[ @.Y.#.z n n _ C v K.=.o.A T C n l 2 l l j _ O.*.+.l & > 1 8 n R n #.o.N { ;.",
"q f m ^ y 4 1 7 G.~.^ Q 6.G #.Y./ K K ) J.].) c %.o.k.k.u.Y n T R / C %.o./ A n n n H 2 l 5 b #.$.o.o.b - o & 8 b Y H _ #.N [ ;.",
"d s ^ / 5 4 1 : G.d.m U ~ 8 S k.R E U U #.H.^ c F F +.H.~.Y z T T / C o.F F M n n n G 2 5 l H i.+.o./ j - > > 6 3 E b H R C ] @.",
"d J _ #.y 4 1 ; ^ %._ K J 4 / Y.^ E U U %.*._ n F F o.H._.A j ` Y T M R F o.n C Y K G * 5 l b ` =.+.o.j $ > $ ; 2 0.l l T C S @.",
"p a _ #.b 4 1 > K #.r.J s y ( Y.T K J G J.J.r.n ( ( / J.G.n z u.T T C A =.k.n n n n G 2 5 n H i.*.+.+.c - > $ % 5 E 3 b K k M O.",
"1 t ^ _ b 4 , 6 _ / ^ b I G o.Y.n y a G G.u._ j _ ( / %.^ j C d._ R R M K.K.C Y n H H 8 5 n n i.K.+./ j ; e 7 ; b H 3 G H j M +.",
"1 t ^ / y 8 , p _ / E 4 s J J.Y.c y J G u.i.) 5 / ( / #.T j A #.i._ R v %.+.n Y R H H 8 3 b j _ K.O.o.n ; 7 8 8 K n l G K n R +.",
"1 a ^ T b y , s ^ #.^ 4 a ~ ~.R.y 8 s G r.u.E 8 / #.^ ` ^ c n _ #./ n k F o.n Y _ b G l j n j _ *.o.+.A ; ; 8 G n j G 8 K n A o.",
"1 y T T b t > p r._ E 4 I U ~.K.5 4 t t _ f.K 5 T #.A ^ / v n #._ Y 3 j A #.C Y i.n G G n T j T #.S o.K ; ; 8 H n 5 G 6 E H n #.",
"4 G E E y t > a _ u._ 5 t.U H.+.5 ~ J y L.i.b c d.%.A ^ #.3 m ^ ^ _ 2 5 / o.M T #.z E H z T l E %.R _ H 6 > 6 E R 3 b G K R C d.",
"; J E H 4 7 > p e.^ T 5 4.b +.k.n 8 y 8 0.f.m 5 _ / A / #.j j E K U 2 b _ o.M R _ z E G n T 5 K i.R n b $ , 6 _ T 3 G H T / v / ",
"; J E H 2 4 - p ^ T T l a 8 F +.b % 8 8 _ L.m c #.R ^ #.i.n j 0.n K y b / / M R _ C E l n H 2 K i.R n G % 7 4 _ T h K H M S k R ",
"; J E K 4 : $ p U ^ T b 6 8 F o.m J ) G f.i.c m %.A / #.i._ j r.E E G l R o.C R #.Y E G n b 4 b _ T z K 6 r 3 E _ j E T A S M o.",
"4 J T H 6 7 $ t E ^ n n 4 j +.h.c ) ) b i.E 5 m %.A / %.d.f.b ^ T ^ G 5 T +.S A _ n K K l j 4 4 _ Y n G 6 7 2 K #.j A _ $.O.M o.",
"4 Q E n 6 a ; t ^ _ Y K 5 K R.+.j ) ) b 0.n b T u.M R d.d.i.n E T 0.H j R =.A M #.j 5 G 3 5 7 4 ) T b 6 ; , ; G r.j n #.=.] N =.",
"4 ) ^ H 8 a ; y ) _ ^ Y l _ R.F n E U b ^ 5 j n u.v v %.#.T n K Y 9.G b / +.M M i.z 2 G l b 7 6 H b 3 ; ; 7 6 K ) j n %.+.N S Y.",
"4 U ^ K b 8 % y r.A Y H j _ Y.o.n ^ _ H r.l 5 ^ i.k v J.u.n n n z _ l n / O.M R i.n 2 U K U 6 , G G 6 ; $ 7 % r U j z =.*.Z S =.",
"5 b ) K 4 8 ; U G._ m n n u.n.[ A i.E K ) b b T _ A j #.#.j n n j _ b b #.=.C A #.W l l E K I $ J G 7 $ & 1 1 , J b n %.$.A S =.",
"y 5 U b 8 8 4 ` ` _ m c n J.R.F T _ b E ) j j _ Y A v R R n Y n n E b b #.*.R M R z b G K U J 1 L I 7 ;   - > - 7 5 j / #.M A K.",
"b 3 K 2 6 4 3 r.` ` T j v *.Y.S m n 3 i.e.j h _ _ R S R S ( T T n H l z o.*.$.k #.C G H l b p , J L 7 q $ - > & 7 4 j / #.k n K.",
"5 b U 4 6 4 5 r.` _ _ j A +.*.B n c 3 ).0.l h W ` A A S / / A / n n l 5 #.*.=.M #.T z H 5 l I 1 a p e e 7 > > X 7 8 n o.#.k M d.",
"2 G Q 8 8 7 b r.` m T n o.=.=.B A b j ).U b j Y ^ n C R +.C T #.T K l 5 =.=.=...S T G K z K ~ > a 7 7 7 a ; 9 X , 4 A O.o.v R u.",
"2 G ) y r 6 U r.) c b j +.k.o.M A j Y (.U E H n K A / R %.v / i.Y E l 5 =.O.O.$.Z R T n n _ J ; 8 7 6 , I ; q & , l R o.o.v R _ ",
"4 J 8.y r 7 e.G.^ c b j ( k.o.v n 5 9.).) ) E C K ^ #.R #.C R / n K 8 5 o.O.o.o.M S Y 3 n _ K ; 4 6 4 4 U 4 1 - ; H / S o.c v / ",
"4 8 U 4 r ; G.I.A m E z / k.+.S A 3 J.P.K K T T ^ ^ / R #./ A / n K 8 5 R o.o.R k R z 3 n K G % 2 8 6 7 U 2 ; X $ K R M o.j j / ",
"a 8 U 2 $ 7 L.!./ / n b +.n.o.R R j `.~.A T M R E 5 T T T T A _ H 8 5 j o.$.#.R k S n 5 j K a $ ; a 7 e L r   $ $ ~ E n T j R M ",
"6 8 U 4 - p f.s.F D b b +.@./ M _ v K.K.n / A n l 2 Y T Y K n _ b 4 5 j S o._ n C C n z K b e $ % 8 6 e L w   X - J b j E n R M ",
"; 8 U 4 - p i.p.F D c T h.@.o.v T n o.+.n #./ Y b 2 n T K n j _ U 4 2 j A $._ z R C z n K 4 e @ 2 y 7 f L = @ $ ; J l j T v R M ",
"; a U 4 - a i.Y.F D 5 m +.@.+.v _ A #./ n #.R T E 4 z H b l 3 ^ U 4 * 3 R =._ n R C j b b 4 e $ 4 8 4 a r # # @ ; G b n ^ C S Z ",
": J ) 4 $ y f.R.+./ 3 n o.O.*.M #.n #.T A f.T / K 4 j b 8 5 3 ^ G 6 3 j R $.n z C C 3 b l 6 e , 4 b ; 8 r @ % $ ; 8 j n ` o...S ",
"7 I 8.8 - y d.^.n.h.y m h.@.*.M _ j #.R Y i.T ` 8 8 n H 8 4 5 E U y 3 j o.$.j z C C 3 H b 6 , , 8 G 4 6 r # 6 % 7 8 5 j #.*.o.S ",
"t I 8.b $ b J.^.c.o.5 K Y.@.O.M T b i._ n _ C Y 3 G E H b 6 l E q.8 2 j o.%.j z R C 3 H K 8 @ $ 4 b 4 7 r # ; % 6 l j j ( *.o.S ",
"p s U 8 @ y d.R.R.o.3 U R.c.O./ T b / _ n _ C v 2 G K l 8 8 b U 8.4 2 n R $.j n C n 3 z E b $ $ 4 H 8 7 r , , % 4 5 5 j / K.o.S ",
"d f 6 2 @ b ` Y.n.F 2 K Y.O.O.o.E n T i.^ E v n b 6 b b 6 8 G K G * j n o.R j n Y z 3 H E 8 @ @ 6 l 8 8 $ , 1 % ; 8 l 3 / Y.S A ",
"e a 6 2 # b _ *.@.A 4 G *.[ ] A n l _ ` T T A C l U K l 8 4 2 ) l 2 l z o.$.z z W C 3 l ) 8 @ $ 6 6 8 6 $   , ; 4 6 l H / =.S M ",
"q e 4 2 % H _ =.*./ 4 U K.O.] A H l 9.T n H R j l 8.E 5 6 2 2 K K * 5 M $.R h n _ n 3 5 0.b @ 7 r 6 G 7 &   q 6 4 l 5 H M =.+.k ",
"1 e 7 3 4 E #.O.*./ 4 Q *.O.S v b 5 _ Y j A / k l E E l 2 3 8 l H 3 z n o.R j n R k 3 b 0.G $ e 8 2 l 7 > X q % 8 b 5 z A R.*.j ",
"1 p 8 8 G ^ #.O.c.F 4 U *.O.S k 5 4 _ T j C / M j K _ H * 2 H K G 3 z A O.S j Y / j 3 K T l $ 7 r 2 5 4 & > , # 8 l G z =.R.o.k ",
"1 p y b K _ #.O.m.F 4 ~ Y.;.O.C 5 5 _ / n T R M n E W n 2 2 H 9.H 3 z / =.M j E _ k 3 H b 2 % r G l l 4 X 9 , ; 5 E E j *.b.S v ",
"q f y b K _ +.O.b.A 4 ~ ^.b.*.S 5 8 E Y _ _ o.S C E n j 3 4 K 9.b j n R O.M j Y R k 3 b b 2 ; a P l j 3 X 1 , 4 3 y.W j @.V.+.A ",
"p g G b E ` +.O.c.B 4 w./.b.m.O.b G r.n _ T R R n E C j 3 l _ _ n 3 n / =.M j T T n 5 b Y 2 ; r U l 5 3 - q 6 8 2 y.T C 3.V.*.S "
};
